<svg xmlns="http://www.w3.org/2000/svg" viewBox="0 0 500 300">
  <!-- Root node -->
  <text x="250" y="30" text-anchor="middle" font-family="sans-serif">S</text>
  <line x1="250" y1="35" x2="250" y2="60" stroke="black" stroke-width="1.5"/>
  
  <!-- A node -->
  <text x="250" y="75" text-anchor="middle" font-family="sans-serif">A</text>
  <line x1="250" y1="80" x2="220" y2="100" stroke="black" stroke-width="1.5"/>
  <line x1="250" y1="80" x2="280" y2="100" stroke="black" stroke-width="1.5"/>
  
  <!-- B and C nodes -->
  <text x="220" y="115" text-anchor="middle" font-family="sans-serif">B</text>
  <text x="280" y="115" text-anchor="middle" font-family="sans-serif">C</text>
  
  <!-- C connects to A and another node -->
  <line x1="280" y1="120" x2="260" y2="140" stroke="black" stroke-width="1.5"/>
  <line x1="280" y1="120" x2="300" y2="140" stroke="black" stroke-width="1.5"/>
  
  <!-- A node in the middle -->
  <text x="260" y="155" text-anchor="middle" font-family="sans-serif">A</text>
  
  <!-- Vertical dividing lines (dashed) -->
  <line x1="150" y1="20" x2="150" y2="250" stroke="black" stroke-width="1" stroke-dasharray="5,5"/>
  <line x1="350" y1="20" x2="350" y2="250" stroke="black" stroke-width="1" stroke-dasharray="5,5"/>
  <line x1="230" y1="180" x2="230" y2="250" stroke="black" stroke-width="1"/>
  <line x1="290" y1="180" x2="290" y2="250" stroke="black" stroke-width="1"/>
  
  <!-- Bottom labels -->
  <text x="100" y="270" text-anchor="middle" font-family="sans-serif">u</text>
  <text x="190" y="270" text-anchor="middle" font-family="sans-serif">v</text>
  <text x="260" y="270" text-anchor="middle" font-family="sans-serif">x</text>
  <text x="320" y="270" text-anchor="middle" font-family="sans-serif">y</text>
  <text x="400" y="270" text-anchor="middle" font-family="sans-serif">z</text>
  
  <!-- Bottom braces -->
  <path d="M 50,230 Q 100,220 150,230" fill="none" stroke="black" stroke-width="1"/>
  <path d="M 150,230 Q 190,220 230,230" fill="none" stroke="black" stroke-width="1"/>
  <path d="M 230,230 Q 260,220 290,230" fill="none" stroke="black" stroke-width="1"/>
  <path d="M 290,230 Q 320,220 350,230" fill="none" stroke="black" stroke-width="1"/>
  <path d="M 350,230 Q 400,220 450,230" fill="none" stroke="black" stroke-width="1"/>
</svg>