<svg width="350" height="150" viewBox="0 0 350 150" xmlns="http://www.w3.org/2000/svg">
    <!-- Tape cells -->
  <rect x="40" y="20" width="270" height="30" fill="none" stroke="black" stroke-width="2"/>
  
  <!-- Cell dividers -->
  <line x1="85" y1="20" x2="85" y2="50" stroke="black" stroke-width="2"/>
  <line x1="130" y1="20" x2="130" y2="50" stroke="black" stroke-width="2"/>
  <line x1="175" y1="20" x2="175" y2="50" stroke="black" stroke-width="2"/>
  <line x1="220" y1="20" x2="220" y2="50" stroke="black" stroke-width="2"/>
  <line x1="265" y1="20" x2="265" y2="50" stroke="black" stroke-width="2"/>
  
  <!-- Cell content -->
  <text x="62.5" y="40" font-family="serif" font-size="16" text-anchor="middle">a</text>
  <text x="107.5" y="40" font-family="serif" font-size="16" text-anchor="middle">b</text>
  <text x="152.5" y="40" font-family="serif" font-size="16" text-anchor="middle">a</text>
  <text x="197.5" y="40" font-family="serif" font-size="16" text-anchor="middle">&#x394;</text>
  <text x="242.5" y="40" font-family="serif" font-size="16" text-anchor="middle">&#x394;</text>
  
  <!-- Ellipsis for continuation -->
  <text x="290" y="35" font-family="serif" font-size="16" text-anchor="middle">. . .</text>
  
  <!-- Cell indices -->
  <text x="62.5" y="15" font-family="serif" font-size="14" text-anchor="middle">1</text>
  <text x="107.5" y="15" font-family="serif" font-size="14" text-anchor="middle">2</text>
  <text x="152.5" y="15" font-family="serif" font-size="14" text-anchor="middle">3</text>
  <text x="197.5" y="15" font-family="serif" font-size="14" text-anchor="middle">4</text>
  <text x="242.5" y="15" font-family="serif" font-size="14" text-anchor="middle">5</text>
  
  <!-- Tape head arrow pointing to the cell -->
  <path d="M62.5,80 L62.5,58 L55,65 M62.5,58 L70,65" fill="none" stroke="black" stroke-width="2"/>
  
  <!-- Tape head label -->
  <text x="62.5" y="100" font-family="serif" font-weight="bold" font-size="14" text-anchor="middle">TAPE HEAD</text>
</svg>