<?xml version="1.0" encoding="UTF-8" standalone="no"?>
<!DOCTYPE svg PUBLIC "-//W3C//DTD SVG 1.1//EN"
 "http://www.w3.org/Graphics/SVG/1.1/DTD/svg11.dtd">
<!-- Generated by graphviz version 13.1.2 (20250808.2320)
 -->
<!-- Pages: 1 -->
<svg width="136pt" height="50pt"
 viewBox="0.00 0.00 136.00 50.00" xmlns="http://www.w3.org/2000/svg" xmlns:xlink="http://www.w3.org/1999/xlink">
<g id="graph0" class="graph" transform="scale(1 1) rotate(0) translate(4 45.68)">
<polygon fill="white" stroke="none" points="-4,4 -4,-45.68 131.77,-45.68 131.77,4 -4,4"/>
<!-- q1 -->
<g id="node1" class="node">
<title>q1</title>
<ellipse fill="none" stroke="black" cx="20.13" cy="-21.55" rx="20.13" ry="20.13"/>
<text xml:space="preserve" text-anchor="middle" x="20.13" y="-16.5" font-family="Times New Roman,serif" font-size="14.00">q1</text>
</g>
<!-- q2 -->
<g id="node2" class="node">
<title>q2</title>
<ellipse fill="none" stroke="black" cx="107.64" cy="-21.55" rx="20.13" ry="20.13"/>
<text xml:space="preserve" text-anchor="middle" x="107.64" y="-16.5" font-family="Times New Roman,serif" font-size="14.00">q2</text>
</g>
<!-- q1&#45;&gt;q2 -->
<g id="edge1" class="edge">
<title>q1&#45;&gt;q2</title>
<path fill="none" stroke="black" d="M40.54,-21.55C50.96,-21.55 64.05,-21.55 75.83,-21.55"/>
<polygon fill="black" stroke="black" points="75.51,-25.05 85.51,-21.55 75.51,-18.05 75.51,-25.05"/>
<text xml:space="preserve" text-anchor="middle" x="63.89" y="-24.75" font-family="Times New Roman,serif" font-size="14.00">r1</text>
</g>
<!-- q1&#45;&gt;q2 -->
<g id="edge2" class="edge">
<title>q1&#45;&gt;q2</title>
<path fill="none" stroke="black" d="M37.38,-10.26C43.62,-6.56 50.99,-2.93 58.26,-1.05 65.98,0.94 74.06,-0.82 81.36,-3.99"/>
<polygon fill="black" stroke="black" points="79.57,-7 90.03,-8.67 82.89,-0.84 79.57,-7"/>
<text xml:space="preserve" text-anchor="middle" x="63.89" y="-4.25" font-family="Times New Roman,serif" font-size="14.00">r2</text>
</g>
</g>
</svg>