<?xml version="1.0" encoding="UTF-8" standalone="no"?>
<!DOCTYPE svg PUBLIC "-//W3C//DTD SVG 1.1//EN"
 "http://www.w3.org/Graphics/SVG/1.1/DTD/svg11.dtd">
<!-- Generated by graphviz version 13.1.2 (20250808.2320)
 -->
<!-- Pages: 1 -->
<svg width="360pt" height="221pt"
 viewBox="0.00 0.00 360.00 221.00" xmlns="http://www.w3.org/2000/svg" xmlns:xlink="http://www.w3.org/1999/xlink">
<g id="graph0" class="graph" transform="scale(1 1) rotate(0) translate(4 216.88)">
<polygon fill="white" stroke="none" points="-4,4 -4,-216.88 355.79,-216.88 355.79,4 -4,4"/>
<g id="node1" class="node">
<title></title>
</g>
<!-- start state -->
<g id="node2" class="node">
<title>start state</title>
<ellipse fill="none" stroke="black" cx="137.23" cy="-166.65" rx="46.23" ry="46.23"/>
<text xml:space="preserve" text-anchor="middle" x="137.23" y="-161.6" font-family="Times New Roman,serif" font-size="14.00">start state</text>
</g>
<!-- &#45;&gt;start state -->
<g id="edge1" class="edge">
<title>&#45;&gt;start state</title>
<path fill="none" stroke="black" d="M53.92,-166.65C61.66,-166.65 70.47,-166.65 79.38,-166.65"/>
<polygon fill="black" stroke="black" points="79.12,-170.15 89.12,-166.65 79.12,-163.15 79.12,-170.15"/>
</g>
<!-- fail state -->
<g id="node3" class="node">
<title>fail state</title>
<ellipse fill="none" stroke="black" cx="137.23" cy="-42.65" rx="42.65" ry="42.65"/>
<text xml:space="preserve" text-anchor="middle" x="137.23" y="-37.6" font-family="Times New Roman,serif" font-size="14.00">fail state</text>
</g>
<!-- start state&#45;&gt;fail state -->
<g id="edge3" class="edge">
<title>start state&#45;&gt;fail state</title>
<path fill="none" stroke="black" d="M137.23,-120.32C137.23,-112.69 137.23,-104.73 137.23,-96.93"/>
<polygon fill="black" stroke="black" points="140.73,-97.19 137.23,-87.19 133.73,-97.19 140.73,-97.19"/>
<text xml:space="preserve" text-anchor="middle" x="125.98" y="-97.81" font-family="Times New Roman,serif" font-size="14.00">b</text>
</g>
<!-- accept state -->
<g id="node4" class="node">
<title>accept state</title>
<ellipse fill="none" stroke="black" cx="293.88" cy="-104.65" rx="53.91" ry="53.91"/>
<ellipse fill="none" stroke="black" cx="293.88" cy="-104.65" rx="57.91" ry="57.91"/>
<text xml:space="preserve" text-anchor="middle" x="293.88" y="-99.6" font-family="Times New Roman,serif" font-size="14.00">accept state</text>
</g>
<!-- start state&#45;&gt;accept state -->
<g id="edge2" class="edge">
<title>start state&#45;&gt;accept state</title>
<path fill="none" stroke="black" d="M180.49,-149.71C195.46,-143.71 212.64,-136.82 229,-130.26"/>
<polygon fill="black" stroke="black" points="230.22,-133.54 238.2,-126.57 227.61,-127.05 230.22,-133.54"/>
<text xml:space="preserve" text-anchor="middle" x="209.72" y="-144.4" font-family="Times New Roman,serif" font-size="14.00">a</text>
</g>
<!-- fail state&#45;&gt;fail state -->
<g id="edge5" class="edge">
<title>fail state:w&#45;&gt;fail state:w</title>
<path fill="none" stroke="black" d="M94.18,-42.65C83.79,-51.65 62.22,-51.65 62.22,-42.65 62.22,-36.04 73.85,-34.29 84.15,-37.38"/>
<polygon fill="black" stroke="black" points="82.36,-40.4 92.84,-41.95 85.62,-34.2 82.36,-40.4"/>
<text xml:space="preserve" text-anchor="middle" x="53.97" y="-37.6" font-family="Times New Roman,serif" font-size="14.00">a,b</text>
</g>
<!-- accept state&#45;&gt;fail state -->
<g id="edge4" class="edge">
<title>accept state&#45;&gt;fail state</title>
<path fill="none" stroke="black" d="M239.56,-83.27C222.77,-76.54 204.31,-69.14 187.79,-62.52"/>
<polygon fill="black" stroke="black" points="189.25,-59.33 178.66,-58.86 186.64,-65.83 189.25,-59.33"/>
<text xml:space="preserve" text-anchor="middle" x="209.72" y="-76.85" font-family="Times New Roman,serif" font-size="14.00">a,b</text>
</g>
</g>
</svg>