<?xml version="1.0" encoding="UTF-8" standalone="no"?>
<!DOCTYPE svg PUBLIC "-//W3C//DTD SVG 1.1//EN"
 "http://www.w3.org/Graphics/SVG/1.1/DTD/svg11.dtd">
<!-- Generated by graphviz version 13.1.2 (20250808.2320)
 -->
<!-- Pages: 1 -->
<svg width="504pt" height="414pt"
 viewBox="0.00 0.00 504.00 414.00" xmlns="http://www.w3.org/2000/svg" xmlns:xlink="http://www.w3.org/1999/xlink">
<g id="graph0" class="graph" transform="scale(1 1) rotate(0) translate(4 409.62)">
<polygon fill="white" stroke="none" points="-4,4 -4,-409.62 499.76,-409.62 499.76,4 -4,4"/>
<g id="node1" class="node">
<title></title>
</g>
<!-- x1,0 -->
<g id="node2" class="node">
<title>x1,0</title>
<ellipse fill="none" stroke="black" cx="125.46" cy="-336.66" rx="34.46" ry="34.46"/>
<text xml:space="preserve" text-anchor="middle" x="125.46" y="-331.61" font-family="Times New Roman,serif" font-size="14.00">x1,∅</text>
</g>
<!-- &#45;&gt;x1,0 -->
<g id="edge1" class="edge">
<title>&#45;&gt;x1,0</title>
<path fill="none" stroke="black" d="M53.85,-336.66C61.69,-336.66 70.54,-336.66 79.26,-336.66"/>
<polygon fill="black" stroke="black" points="79.03,-340.16 89.03,-336.66 79.03,-333.16 79.03,-340.16"/>
</g>
<!-- x1,0&#45;&gt;x1,0 -->
<g id="edge3" class="edge">
<title>x1,0&#45;&gt;x1,0</title>
<path fill="none" stroke="black" d="M115.53,-369.96C115.64,-380.65 118.94,-389.12 125.46,-389.12 129.43,-389.12 132.21,-385.97 133.8,-381.1"/>
<polygon fill="black" stroke="black" points="137.23,-381.85 135.18,-371.46 130.3,-380.86 137.23,-381.85"/>
<text xml:space="preserve" text-anchor="middle" x="125.46" y="-392.32" font-family="Times New Roman,serif" font-size="14.00">b</text>
</g>
<!-- x2,{y1} -->
<g id="node3" class="node">
<title>x2,{y1}</title>
<ellipse fill="none" stroke="black" cx="258.81" cy="-336.66" rx="41.12" ry="41.12"/>
<text xml:space="preserve" text-anchor="middle" x="258.81" y="-331.61" font-family="Times New Roman,serif" font-size="14.00">x2,{y1}</text>
</g>
<!-- x1,0&#45;&gt;x2,{y1} -->
<g id="edge2" class="edge">
<title>x1,0&#45;&gt;x2,{y1}</title>
<path fill="none" stroke="black" d="M160.29,-336.66C174.22,-336.66 190.67,-336.66 206.06,-336.66"/>
<polygon fill="black" stroke="black" points="206.04,-340.16 216.04,-336.66 206.04,-333.16 206.04,-340.16"/>
<text xml:space="preserve" text-anchor="middle" x="180.92" y="-339.86" font-family="Times New Roman,serif" font-size="14.00">a</text>
</g>
<!-- x2,{y1,y2} -->
<g id="node4" class="node">
<title>x2,{y1,y2}</title>
<ellipse fill="none" stroke="black" cx="258.81" cy="-206.66" rx="52.89" ry="52.89"/>
<text xml:space="preserve" text-anchor="middle" x="258.81" y="-201.61" font-family="Times New Roman,serif" font-size="14.00">x2,{y1,y2}</text>
</g>
<!-- x2,{y1}&#45;&gt;x2,{y1,y2} -->
<g id="edge4" class="edge">
<title>x2,{y1}&#45;&gt;x2,{y1,y2}</title>
<path fill="none" stroke="black" d="M258.81,-295.23C258.81,-287.6 258.81,-279.47 258.81,-271.34"/>
<polygon fill="black" stroke="black" points="262.31,-271.42 258.81,-261.42 255.31,-271.42 262.31,-271.42"/>
<text xml:space="preserve" text-anchor="middle" x="247.56" y="-272.49" font-family="Times New Roman,serif" font-size="14.00">a</text>
</g>
<!-- x1,{y1} -->
<g id="node6" class="node">
<title>x1,{y1}</title>
<ellipse fill="none" stroke="black" cx="427.11" cy="-247.66" rx="41.12" ry="41.12"/>
<text xml:space="preserve" text-anchor="middle" x="427.11" y="-242.61" font-family="Times New Roman,serif" font-size="14.00">x1,{y1}</text>
</g>
<!-- x2,{y1}&#45;&gt;x1,{y1} -->
<g id="edge5" class="edge">
<title>x2,{y1}&#45;&gt;x1,{y1}</title>
<path fill="none" stroke="black" d="M295.48,-317.57C320.28,-304.3 353.54,-286.49 380.3,-272.17"/>
<polygon fill="black" stroke="black" points="381.7,-275.39 388.87,-267.59 378.4,-269.22 381.7,-275.39"/>
<text xml:space="preserve" text-anchor="middle" x="337.07" y="-298.03" font-family="Times New Roman,serif" font-size="14.00">b</text>
</g>
<!-- x2,{y1,y2}&#45;&gt;x2,{y1,y2} -->
<g id="edge8" class="edge">
<title>x2,{y1,y2}:w&#45;&gt;x2,{y1,y2}:w</title>
<path fill="none" stroke="black" d="M205.43,-206.66C192.94,-215.66 166.98,-215.66 166.98,-206.66 166.98,-199.7 182.51,-198.12 195.33,-201.93"/>
<polygon fill="black" stroke="black" points="193.52,-204.95 204.06,-206.02 196.49,-198.61 193.52,-204.95"/>
<text xml:space="preserve" text-anchor="middle" x="163.98" y="-201.61" font-family="Times New Roman,serif" font-size="14.00">a</text>
</g>
<!-- x1,{y1,y3} -->
<g id="node5" class="node">
<title>x1,{y1,y3}</title>
<ellipse fill="none" stroke="black" cx="258.81" cy="-61.66" rx="52.89" ry="52.89"/>
<ellipse fill="none" stroke="black" cx="258.81" cy="-61.66" rx="56.89" ry="56.89"/>
<text xml:space="preserve" text-anchor="middle" x="258.81" y="-56.61" font-family="Times New Roman,serif" font-size="14.00">x1,{y1,y3}</text>
</g>
<!-- x2,{y1,y2}&#45;&gt;x1,{y1,y3} -->
<g id="edge9" class="edge">
<title>x2,{y1,y2}&#45;&gt;x1,{y1,y3}</title>
<path fill="none" stroke="black" d="M258.81,-153.54C258.81,-145.98 258.81,-138.12 258.81,-130.31"/>
<polygon fill="black" stroke="black" points="262.31,-130.48 258.81,-120.48 255.31,-130.48 262.31,-130.48"/>
<text xml:space="preserve" text-anchor="middle" x="247.56" y="-131.11" font-family="Times New Roman,serif" font-size="14.00">b</text>
</g>
<!-- x1,{y1,y3}&#45;&gt;x1,{y1,y3} -->
<g id="edge11" class="edge">
<title>x1,{y1,y3}:w&#45;&gt;x1,{y1,y3}:w</title>
<path fill="none" stroke="black" d="M201.68,-61.66C188.94,-70.66 162.98,-70.66 162.98,-61.66 162.98,-54.7 178.51,-53.12 191.44,-56.93"/>
<polygon fill="black" stroke="black" points="189.76,-60.01 200.31,-61.02 192.7,-53.65 189.76,-60.01"/>
<text xml:space="preserve" text-anchor="middle" x="159.61" y="-56.61" font-family="Times New Roman,serif" font-size="14.00">b</text>
</g>
<!-- x2,{y1,y2,y3} -->
<g id="node7" class="node">
<title>x2,{y1,y2,y3}</title>
<ellipse fill="none" stroke="black" cx="427.11" cy="-68.66" rx="64.66" ry="64.66"/>
<ellipse fill="none" stroke="black" cx="427.11" cy="-68.66" rx="68.66" ry="68.66"/>
<text xml:space="preserve" text-anchor="middle" x="427.11" y="-63.61" font-family="Times New Roman,serif" font-size="14.00">x2,{y1,y2,y3}</text>
</g>
<!-- x1,{y1,y3}&#45;&gt;x2,{y1,y2,y3} -->
<g id="edge10" class="edge">
<title>x1,{y1,y3}&#45;&gt;x2,{y1,y2,y3}</title>
<path fill="none" stroke="black" d="M315.4,-70C321.56,-70.68 327.76,-71.26 333.7,-71.66 338.03,-71.95 342.48,-72.15 346.98,-72.27"/>
<polygon fill="black" stroke="black" points="346.64,-75.76 356.69,-72.39 346.73,-68.76 346.64,-75.76"/>
<text xml:space="preserve" text-anchor="middle" x="337.07" y="-75.15" font-family="Times New Roman,serif" font-size="14.00">a</text>
</g>
<!-- x1,{y1}&#45;&gt;x2,{y1,y2} -->
<g id="edge6" class="edge">
<title>x1,{y1}&#45;&gt;x2,{y1,y2}</title>
<path fill="none" stroke="black" d="M387.47,-235.93C372.81,-231.65 355.92,-226.95 340.45,-223.16 334.55,-221.71 328.39,-220.29 322.21,-218.93"/>
<polygon fill="black" stroke="black" points="323.12,-215.55 312.61,-216.86 321.65,-222.39 323.12,-215.55"/>
<text xml:space="preserve" text-anchor="middle" x="337.07" y="-226.36" font-family="Times New Roman,serif" font-size="14.00">a</text>
</g>
<!-- x1,{y1}&#45;&gt;x1,{y1} -->
<g id="edge7" class="edge">
<title>x1,{y1}&#45;&gt;x1,{y1}</title>
<path fill="none" stroke="black" d="M410.23,-285.47C410.49,-297.38 416.12,-306.77 427.11,-306.77 434.32,-306.77 439.22,-302.73 441.81,-296.58"/>
<polygon fill="black" stroke="black" points="445.21,-297.44 443.69,-286.95 438.34,-296.1 445.21,-297.44"/>
<text xml:space="preserve" text-anchor="middle" x="427.11" y="-309.97" font-family="Times New Roman,serif" font-size="14.00">b</text>
</g>
<!-- x2,{y1,y2,y3}&#45;&gt;x1,{y1,y3} -->
<g id="edge13" class="edge">
<title>x2,{y1,y2,y3}&#45;&gt;x1,{y1,y3}</title>
<path fill="none" stroke="black" d="M360.22,-51.95C351.35,-50.94 342.33,-50.55 333.7,-51.16 331.37,-51.32 329.01,-51.52 326.63,-51.73"/>
<polygon fill="black" stroke="black" points="326.49,-48.23 316.9,-52.75 327.21,-55.19 326.49,-48.23"/>
<text xml:space="preserve" text-anchor="middle" x="337.07" y="-54.36" font-family="Times New Roman,serif" font-size="14.00">b</text>
</g>
<!-- x2,{y1,y2,y3}&#45;&gt;x2,{y1,y2,y3} -->
<g id="edge12" class="edge">
<title>x2,{y1,y2,y3}&#45;&gt;x2,{y1,y2,y3}</title>
<path fill="none" stroke="black" d="M411.35,-135.88C413.5,-147.36 418.75,-155.32 427.11,-155.32 432.46,-155.32 436.54,-152.05 439.34,-146.69"/>
<polygon fill="black" stroke="black" points="442.62,-147.91 442.4,-137.32 435.97,-145.74 442.62,-147.91"/>
<text xml:space="preserve" text-anchor="middle" x="427.11" y="-158.52" font-family="Times New Roman,serif" font-size="14.00">a</text>
</g>
</g>
</svg>