<?xml version="1.0" encoding="UTF-8" standalone="no"?>
<!DOCTYPE svg PUBLIC "-//W3C//DTD SVG 1.1//EN"
 "http://www.w3.org/Graphics/SVG/1.1/DTD/svg11.dtd">
<!-- Generated by graphviz version 13.1.2 (20250808.2320)
 -->
<!-- Pages: 1 -->
<svg width="622pt" height="272pt"
 viewBox="0.00 0.00 622.00 272.00" xmlns="http://www.w3.org/2000/svg" xmlns:xlink="http://www.w3.org/1999/xlink">
<g id="graph0" class="graph" transform="scale(1 1) rotate(0) translate(4 268.49)">
<polygon fill="white" stroke="none" points="-4,4 -4,-268.49 618.15,-268.49 618.15,4 -4,4"/>
<g id="node1" class="node">
<title></title>
</g>
<!-- {q0} -->
<g id="node2" class="node">
<title>{q0}</title>
<ellipse fill="none" stroke="black" cx="166.32" cy="-29.34" rx="29.34" ry="29.34"/>
<text xml:space="preserve" text-anchor="middle" x="166.32" y="-24.29" font-family="Times New Roman,serif" font-size="14.00">{q0}</text>
</g>
<!-- &#45;&gt;{q0} -->
<g id="edge1" class="edge">
<title>&#45;&gt;{q0}</title>
<path fill="none" stroke="black" d="M71.98,-29.34C87.52,-29.34 107.63,-29.34 125.2,-29.34"/>
<polygon fill="black" stroke="black" points="125.07,-32.84 135.07,-29.34 125.07,-25.84 125.07,-32.84"/>
</g>
<!-- {q0}&#45;&gt;{q0} -->
<g id="edge5" class="edge">
<title>{q0}&#45;&gt;{q0}</title>
<path fill="none" stroke="black" d="M156.1,-57.06C155.65,-67.78 159.06,-76.69 166.32,-76.69 170.75,-76.69 173.75,-73.38 175.31,-68.37"/>
<polygon fill="black" stroke="black" points="178.77,-68.89 176.38,-58.57 171.81,-68.13 178.77,-68.89"/>
<text xml:space="preserve" text-anchor="middle" x="166.32" y="-79.89" font-family="Times New Roman,serif" font-size="14.00">b</text>
</g>
<!-- {q0,q1} -->
<g id="node6" class="node">
<title>{q0,q1}</title>
<ellipse fill="none" stroke="black" cx="283.53" cy="-71.34" rx="41.12" ry="41.12"/>
<text xml:space="preserve" text-anchor="middle" x="283.53" y="-66.29" font-family="Times New Roman,serif" font-size="14.00">{q0,q1}</text>
</g>
<!-- {q0}&#45;&gt;{q0,q1} -->
<g id="edge4" class="edge">
<title>{q0}&#45;&gt;{q0,q1}</title>
<path fill="none" stroke="black" d="M194.34,-39.19C206.09,-43.48 220.24,-48.63 233.73,-53.55"/>
<polygon fill="black" stroke="black" points="232.33,-56.77 242.93,-56.91 234.73,-50.19 232.33,-56.77"/>
<text xml:space="preserve" text-anchor="middle" x="221.04" y="-52.28" font-family="Times New Roman,serif" font-size="14.00">a</text>
</g>
<!-- &empty; -->
<g id="node3" class="node">
<title>&empty;</title>
<ellipse fill="none" stroke="black" cx="283.53" cy="-174.34" rx="21.15" ry="21.15"/>
<text xml:space="preserve" text-anchor="middle" x="283.53" y="-168.17" font-family="Times New Roman,serif" font-size="14.00">∅</text>
</g>
<!-- &empty;&#45;&gt;&empty; -->
<g id="edge2" class="edge">
<title>&empty;&#45;&gt;&empty;</title>
<path fill="none" stroke="black" d="M277.82,-194.89C277.11,-204.77 279.02,-213.49 283.53,-213.49 286.14,-213.49 287.88,-210.58 288.75,-206.21"/>
<polygon fill="black" stroke="black" points="292.24,-206.54 289.18,-196.4 285.24,-206.23 292.24,-206.54"/>
<text xml:space="preserve" text-anchor="middle" x="283.53" y="-216.69" font-family="Times New Roman,serif" font-size="14.00">a</text>
</g>
<!-- &empty;&#45;&gt;&empty; -->
<g id="edge3" class="edge">
<title>&empty;&#45;&gt;&empty;</title>
<path fill="none" stroke="black" d="M274.06,-193.67C269.15,-211.81 272.3,-231.49 283.53,-231.49 292.48,-231.49 296.3,-218.99 295,-204.73"/>
<polygon fill="black" stroke="black" points="298.49,-204.38 293.28,-195.16 291.6,-205.62 298.49,-204.38"/>
<text xml:space="preserve" text-anchor="middle" x="283.53" y="-234.69" font-family="Times New Roman,serif" font-size="14.00">b</text>
</g>
<!-- {q1} -->
<g id="node4" class="node">
<title>{q1}</title>
<ellipse fill="none" stroke="black" cx="45.12" cy="-214.34" rx="29.34" ry="29.34"/>
<text xml:space="preserve" text-anchor="middle" x="45.12" y="-209.29" font-family="Times New Roman,serif" font-size="14.00">{q1}</text>
</g>
<!-- {q2} -->
<g id="node5" class="node">
<title>{q2}</title>
<ellipse fill="none" stroke="black" cx="166.32" cy="-166.34" rx="29.34" ry="29.34"/>
<ellipse fill="none" stroke="black" cx="166.32" cy="-166.34" rx="33.34" ry="33.34"/>
<text xml:space="preserve" text-anchor="middle" x="166.32" y="-161.29" font-family="Times New Roman,serif" font-size="14.00">{q2}</text>
</g>
<!-- {q1}&#45;&gt;{q2} -->
<g id="edge6" class="edge">
<title>{q1}&#45;&gt;{q2}</title>
<path fill="none" stroke="black" d="M74.78,-213.39C87.49,-212.17 102.38,-209.6 114.98,-204.34 120.73,-201.94 126.41,-198.74 131.76,-195.2"/>
<polygon fill="black" stroke="black" points="133.69,-198.12 139.77,-189.45 129.61,-192.44 133.69,-198.12"/>
<text xml:space="preserve" text-anchor="middle" x="111.61" y="-209.54" font-family="Times New Roman,serif" font-size="14.00">a</text>
</g>
<!-- {q1}&#45;&gt;{q2} -->
<g id="edge7" class="edge">
<title>{q1}&#45;&gt;{q2}</title>
<path fill="none" stroke="black" d="M71.39,-200.8C82.51,-195.14 95.83,-188.75 108.23,-183.84 112.97,-181.97 117.99,-180.17 123.01,-178.48"/>
<polygon fill="black" stroke="black" points="124,-181.84 132.46,-175.46 121.87,-175.18 124,-181.84"/>
<text xml:space="preserve" text-anchor="middle" x="111.61" y="-187.04" font-family="Times New Roman,serif" font-size="14.00">b</text>
</g>
<!-- {q2}&#45;&gt;&empty; -->
<g id="edge8" class="edge">
<title>{q2}&#45;&gt;&empty;</title>
<path fill="none" stroke="black" d="M200.03,-168.61C215.93,-169.72 234.97,-171.04 250.75,-172.14"/>
<polygon fill="black" stroke="black" points="250.35,-175.62 260.57,-172.82 250.83,-168.63 250.35,-175.62"/>
<text xml:space="preserve" text-anchor="middle" x="221.04" y="-173.3" font-family="Times New Roman,serif" font-size="14.00">a</text>
</g>
<!-- {q2}&#45;&gt;&empty; -->
<g id="edge9" class="edge">
<title>{q2}&#45;&gt;&empty;</title>
<path fill="none" stroke="black" d="M197.02,-152.12C205.77,-149.46 215.42,-148.02 224.42,-149.84 234.45,-151.87 244.9,-155.68 254.12,-159.71"/>
<polygon fill="black" stroke="black" points="252.38,-162.75 262.92,-163.79 255.33,-156.41 252.38,-162.75"/>
<text xml:space="preserve" text-anchor="middle" x="221.04" y="-153.04" font-family="Times New Roman,serif" font-size="14.00">b</text>
</g>
<!-- {q0,q2} -->
<g id="node7" class="node">
<title>{q0,q2}</title>
<ellipse fill="none" stroke="black" cx="569.04" cy="-45.34" rx="41.12" ry="41.12"/>
<ellipse fill="none" stroke="black" cx="569.04" cy="-45.34" rx="45.12" ry="45.12"/>
<text xml:space="preserve" text-anchor="middle" x="569.04" y="-40.29" font-family="Times New Roman,serif" font-size="14.00">{q0,q2}</text>
</g>
<!-- {q0,q1}&#45;&gt;{q0,q2} -->
<g id="edge11" class="edge">
<title>{q0,q1}&#45;&gt;{q0,q2}</title>
<path fill="none" stroke="black" d="M304.38,-107.34C325.58,-145.11 357.48,-199.82 367.4,-205.34 411.57,-229.96 437.72,-231.2 481.17,-205.34 519.25,-182.69 541.67,-136.88 554.16,-100.06"/>
<polygon fill="black" stroke="black" points="557.38,-101.48 557.11,-90.89 550.72,-99.34 557.38,-101.48"/>
<text xml:space="preserve" text-anchor="middle" x="424.29" y="-227.47" font-family="Times New Roman,serif" font-size="14.00">b</text>
</g>
<!-- {q0,q1,q2} -->
<g id="node9" class="node">
<title>{q0,q1,q2}</title>
<ellipse fill="none" stroke="black" cx="424.29" cy="-105.34" rx="52.89" ry="52.89"/>
<ellipse fill="none" stroke="black" cx="424.29" cy="-105.34" rx="56.89" ry="56.89"/>
<text xml:space="preserve" text-anchor="middle" x="424.29" y="-100.29" font-family="Times New Roman,serif" font-size="14.00">{q0,q1,q2}</text>
</g>
<!-- {q0,q1}&#45;&gt;{q0,q1,q2} -->
<g id="edge10" class="edge">
<title>{q0,q1}&#45;&gt;{q0,q1,q2}</title>
<path fill="none" stroke="black" d="M323.92,-81C334.43,-83.57 346.07,-86.42 357.57,-89.24"/>
<polygon fill="black" stroke="black" points="356.5,-92.58 367.05,-91.56 358.17,-85.78 356.5,-92.58"/>
<text xml:space="preserve" text-anchor="middle" x="346.02" y="-89.51" font-family="Times New Roman,serif" font-size="14.00">a</text>
</g>
<!-- {q0,q2}&#45;&gt;{q0} -->
<g id="edge13" class="edge">
<title>{q0,q2}&#45;&gt;{q0}</title>
<path fill="none" stroke="black" d="M527.8,-26.69C513.41,-20.93 496.86,-15.32 481.17,-12.34 383.67,6.17 266.3,-10.2 206.5,-21.24"/>
<polygon fill="black" stroke="black" points="205.99,-17.77 196.82,-23.08 207.3,-24.65 205.99,-17.77"/>
<text xml:space="preserve" text-anchor="middle" x="346.02" y="-8.15" font-family="Times New Roman,serif" font-size="14.00">b</text>
</g>
<!-- {q0,q2}&#45;&gt;{q0,q1} -->
<g id="edge12" class="edge">
<title>{q0,q2}&#45;&gt;{q0,q1}</title>
<path fill="none" stroke="black" d="M525.84,-31.6C484.75,-20.32 420.85,-8.35 367.4,-22.84 353.31,-26.66 339.16,-33.55 326.64,-40.95"/>
<polygon fill="black" stroke="black" points="324.92,-37.9 318.27,-46.15 328.61,-43.85 324.92,-37.9"/>
<text xml:space="preserve" text-anchor="middle" x="424.29" y="-26.04" font-family="Times New Roman,serif" font-size="14.00">a</text>
</g>
<!-- {q1,q2} -->
<g id="node8" class="node">
<title>{q1,q2}</title>
<ellipse fill="none" stroke="black" cx="45.12" cy="-118.34" rx="41.12" ry="41.12"/>
<ellipse fill="none" stroke="black" cx="45.12" cy="-118.34" rx="45.12" ry="45.12"/>
<text xml:space="preserve" text-anchor="middle" x="45.12" y="-113.29" font-family="Times New Roman,serif" font-size="14.00">{q1,q2}</text>
</g>
<!-- {q1,q2}&#45;&gt;{q2} -->
<g id="edge14" class="edge">
<title>{q1,q2}&#45;&gt;{q2}</title>
<path fill="none" stroke="black" d="M87.47,-135C99.42,-139.81 112.45,-145.05 124.37,-149.85"/>
<polygon fill="black" stroke="black" points="122.95,-153.06 133.54,-153.54 125.57,-146.56 122.95,-153.06"/>
<text xml:space="preserve" text-anchor="middle" x="111.61" y="-148.42" font-family="Times New Roman,serif" font-size="14.00">a</text>
</g>
<!-- {q1,q2}&#45;&gt;{q2} -->
<g id="edge15" class="edge">
<title>{q1,q2}&#45;&gt;{q2}</title>
<path fill="none" stroke="black" d="M90.42,-117.02C98.8,-117.94 107.33,-119.71 114.98,-122.84 122.02,-125.73 128.77,-130.01 134.91,-134.77"/>
<polygon fill="black" stroke="black" points="132.39,-137.22 142.28,-141.01 136.91,-131.88 132.39,-137.22"/>
<text xml:space="preserve" text-anchor="middle" x="111.61" y="-126.04" font-family="Times New Roman,serif" font-size="14.00">b</text>
</g>
<!-- {q0,q1,q2}&#45;&gt;{q0,q2} -->
<g id="edge17" class="edge">
<title>{q0,q1,q2}&#45;&gt;{q0,q2}</title>
<path fill="none" stroke="black" d="M477.23,-83.51C490.06,-78.12 503.79,-72.35 516.6,-66.96"/>
<polygon fill="black" stroke="black" points="517.84,-70.24 525.7,-63.14 515.13,-63.79 517.84,-70.24"/>
<text xml:space="preserve" text-anchor="middle" x="502.55" y="-76.74" font-family="Times New Roman,serif" font-size="14.00">b</text>
</g>
<!-- {q0,q1,q2}&#45;&gt;{q0,q1,q2} -->
<g id="edge16" class="edge">
<title>{q0,q1,q2}&#45;&gt;{q0,q1,q2}</title>
<path fill="none" stroke="black" d="M410.17,-160.86C411.71,-172.15 416.41,-180.23 424.29,-180.23 429.21,-180.23 432.89,-177.07 435.33,-171.95"/>
<polygon fill="black" stroke="black" points="438.7,-172.89 438,-162.32 431.96,-171.03 438.7,-172.89"/>
<text xml:space="preserve" text-anchor="middle" x="424.29" y="-183.43" font-family="Times New Roman,serif" font-size="14.00">a</text>
</g>
</g>
</svg>