<?xml version="1.0" encoding="UTF-8" standalone="no"?>
<!DOCTYPE svg PUBLIC "-//W3C//DTD SVG 1.1//EN"
 "http://www.w3.org/Graphics/SVG/1.1/DTD/svg11.dtd">
<!-- Generated by graphviz version 13.1.2 (20250808.2320)
 -->
<!-- Pages: 1 -->
<svg width="313pt" height="91pt"
 viewBox="0.00 0.00 313.00 91.00" xmlns="http://www.w3.org/2000/svg" xmlns:xlink="http://www.w3.org/1999/xlink">
<g id="graph0" class="graph" transform="scale(1 1) rotate(0) translate(4 86.76)">
<polygon fill="white" stroke="none" points="-4,4 -4,-86.76 308.54,-86.76 308.54,4 -4,4"/>
<g id="node1" class="node">
<title></title>
</g>
<!-- y1 -->
<g id="node2" class="node">
<title>y1</title>
<ellipse fill="none" stroke="black" cx="111.13" cy="-24.13" rx="20.13" ry="20.13"/>
<text xml:space="preserve" text-anchor="middle" x="111.13" y="-19.08" font-family="Times New Roman,serif" font-size="14.00">y1</text>
</g>
<!-- &#45;&gt;y1 -->
<g id="edge1" class="edge">
<title>&#45;&gt;y1</title>
<path fill="none" stroke="black" d="M53.99,-24.13C62.04,-24.13 70.98,-24.13 79.33,-24.13"/>
<polygon fill="black" stroke="black" points="79.05,-27.63 89.05,-24.13 79.05,-20.63 79.05,-27.63"/>
</g>
<!-- y1&#45;&gt;y1 -->
<g id="edge2" class="edge">
<title>y1&#45;&gt;y1</title>
<path fill="none" stroke="black" d="M104.14,-43.36C103.07,-53.3 105.4,-62.26 111.13,-62.26 114.45,-62.26 116.62,-59.27 117.66,-54.82"/>
<polygon fill="black" stroke="black" points="121.16,-55 118.06,-44.87 114.16,-54.72 121.16,-55"/>
<text xml:space="preserve" text-anchor="middle" x="111.13" y="-65.46" font-family="Times New Roman,serif" font-size="14.00">b</text>
</g>
<!-- y2 -->
<g id="node3" class="node">
<title>y2</title>
<ellipse fill="none" stroke="black" cx="193.39" cy="-24.13" rx="20.13" ry="20.13"/>
<text xml:space="preserve" text-anchor="middle" x="193.39" y="-19.08" font-family="Times New Roman,serif" font-size="14.00">y2</text>
</g>
<!-- y1&#45;&gt;y2 -->
<g id="edge3" class="edge">
<title>y1&#45;&gt;y2</title>
<path fill="none" stroke="black" d="M131.56,-24.13C140.56,-24.13 151.48,-24.13 161.57,-24.13"/>
<polygon fill="black" stroke="black" points="161.35,-27.63 171.35,-24.13 161.35,-20.63 161.35,-27.63"/>
<text xml:space="preserve" text-anchor="middle" x="152.26" y="-27.33" font-family="Times New Roman,serif" font-size="14.00">a</text>
</g>
<!-- y2&#45;&gt;y2 -->
<g id="edge4" class="edge">
<title>y2&#45;&gt;y2</title>
<path fill="none" stroke="black" d="M185.95,-43.36C184.81,-53.3 187.29,-62.26 193.39,-62.26 196.92,-62.26 199.24,-59.27 200.35,-54.82"/>
<polygon fill="black" stroke="black" points="203.84,-55.01 200.77,-44.87 196.85,-54.71 203.84,-55.01"/>
<text xml:space="preserve" text-anchor="middle" x="193.39" y="-65.46" font-family="Times New Roman,serif" font-size="14.00">a</text>
</g>
<!-- y3 -->
<g id="node4" class="node">
<title>y3</title>
<ellipse fill="none" stroke="black" cx="280.41" cy="-24.13" rx="20.13" ry="20.13"/>
<ellipse fill="none" stroke="black" cx="280.41" cy="-24.13" rx="24.13" ry="24.13"/>
<text xml:space="preserve" text-anchor="middle" x="280.41" y="-19.08" font-family="Times New Roman,serif" font-size="14.00">y3</text>
</g>
<!-- y2&#45;&gt;y3 -->
<g id="edge5" class="edge">
<title>y2&#45;&gt;y3</title>
<path fill="none" stroke="black" d="M213.68,-24.13C222.8,-24.13 233.96,-24.13 244.48,-24.13"/>
<polygon fill="black" stroke="black" points="244.44,-27.63 254.44,-24.13 244.44,-20.63 244.44,-27.63"/>
<text xml:space="preserve" text-anchor="middle" x="234.9" y="-27.33" font-family="Times New Roman,serif" font-size="14.00">b</text>
</g>
<!-- y3&#45;&gt;y3 -->
<g id="edge6" class="edge">
<title>y3&#45;&gt;y3</title>
<path fill="none" stroke="black" d="M272.01,-47.1C271.21,-57.38 274.01,-66.26 280.41,-66.26 284.21,-66.26 286.74,-63.13 288,-58.43"/>
<polygon fill="black" stroke="black" points="291.48,-58.83 288.7,-48.61 284.5,-58.34 291.48,-58.83"/>
<text xml:space="preserve" text-anchor="middle" x="280.41" y="-69.46" font-family="Times New Roman,serif" font-size="14.00">a,b</text>
</g>
</g>
</svg>