<?xml version="1.0" encoding="UTF-8" standalone="no"?>
<!DOCTYPE svg PUBLIC "-//W3C//DTD SVG 1.1//EN"
 "http://www.w3.org/Graphics/SVG/1.1/DTD/svg11.dtd">
<!-- Generated by graphviz version 13.1.2 (20250808.2320)
 -->
<!-- Pages: 1 -->
<svg width="230pt" height="91pt"
 viewBox="0.00 0.00 230.00 91.00" xmlns="http://www.w3.org/2000/svg" xmlns:xlink="http://www.w3.org/1999/xlink">
<g id="graph0" class="graph" transform="scale(1 1) rotate(0) translate(4 86.76)">
<polygon fill="white" stroke="none" points="-4,4 -4,-86.76 225.52,-86.76 225.52,4 -4,4"/>
<g id="node1" class="node">
<title></title>
</g>
<!-- y1 -->
<g id="node2" class="node">
<title>y1</title>
<ellipse fill="none" stroke="black" cx="111.13" cy="-24.13" rx="20.13" ry="20.13"/>
<text xml:space="preserve" text-anchor="middle" x="111.13" y="-19.08" font-family="Times New Roman,serif" font-size="14.00">y1</text>
</g>
<!-- &#45;&gt;y1 -->
<g id="edge1" class="edge">
<title>&#45;&gt;y1</title>
<path fill="none" stroke="black" d="M53.99,-24.13C62.04,-24.13 70.98,-24.13 79.33,-24.13"/>
<polygon fill="black" stroke="black" points="79.05,-27.63 89.05,-24.13 79.05,-20.63 79.05,-27.63"/>
</g>
<!-- y1&#45;&gt;y1 -->
<g id="edge3" class="edge">
<title>y1&#45;&gt;y1</title>
<path fill="none" stroke="black" d="M104.14,-43.36C103.07,-53.3 105.4,-62.26 111.13,-62.26 114.45,-62.26 116.62,-59.27 117.66,-54.82"/>
<polygon fill="black" stroke="black" points="121.16,-55 118.06,-44.87 114.16,-54.72 121.16,-55"/>
<text xml:space="preserve" text-anchor="middle" x="111.13" y="-65.46" font-family="Times New Roman,serif" font-size="14.00">b</text>
</g>
<!-- y2 -->
<g id="node3" class="node">
<title>y2</title>
<ellipse fill="none" stroke="black" cx="197.39" cy="-24.13" rx="20.13" ry="20.13"/>
<ellipse fill="none" stroke="black" cx="197.39" cy="-24.13" rx="24.13" ry="24.13"/>
<text xml:space="preserve" text-anchor="middle" x="197.39" y="-19.08" font-family="Times New Roman,serif" font-size="14.00">y2</text>
</g>
<!-- y1&#45;&gt;y2 -->
<g id="edge2" class="edge">
<title>y1&#45;&gt;y2</title>
<path fill="none" stroke="black" d="M131.67,-24.13C140.65,-24.13 151.56,-24.13 161.85,-24.13"/>
<polygon fill="black" stroke="black" points="161.55,-27.63 171.55,-24.13 161.55,-20.63 161.55,-27.63"/>
<text xml:space="preserve" text-anchor="middle" x="152.26" y="-27.33" font-family="Times New Roman,serif" font-size="14.00">a</text>
</g>
<!-- y2&#45;&gt;y2 -->
<g id="edge4" class="edge">
<title>y2&#45;&gt;y2</title>
<path fill="none" stroke="black" d="M189.06,-47.1C188.27,-57.38 191.05,-66.26 197.39,-66.26 201.16,-66.26 203.67,-63.13 204.92,-58.43"/>
<polygon fill="black" stroke="black" points="208.4,-58.83 205.62,-48.61 201.42,-58.34 208.4,-58.83"/>
<text xml:space="preserve" text-anchor="middle" x="197.39" y="-69.46" font-family="Times New Roman,serif" font-size="14.00">a,b</text>
</g>
</g>
</svg>