<?xml version="1.0" encoding="UTF-8" standalone="no"?>
<!DOCTYPE svg PUBLIC "-//W3C//DTD SVG 1.1//EN"
 "http://www.w3.org/Graphics/SVG/1.1/DTD/svg11.dtd">
<!-- Generated by graphviz version 13.1.2 (20250808.2320)
 -->
<!-- Pages: 1 -->
<svg width="531pt" height="45pt"
 viewBox="0.00 0.00 531.00 45.00" xmlns="http://www.w3.org/2000/svg" xmlns:xlink="http://www.w3.org/1999/xlink">
<g id="graph0" class="graph" transform="scale(1 1) rotate(0) translate(4 41.19)">
<polygon fill="white" stroke="none" points="-4,4 -4,-41.19 526.96,-41.19 526.96,4 -4,4"/>
<g id="node1" class="node">
<title></title>
</g>
<!-- s0 -->
<g id="node2" class="node">
<title>s0</title>
<ellipse fill="none" stroke="black" cx="109.6" cy="-18.6" rx="18.6" ry="18.6"/>
<text xml:space="preserve" text-anchor="start" x="103.97" y="-14.55" font-family="Times New Roman,serif" font-size="14.00">s</text>
<text xml:space="preserve" text-anchor="start" x="109.22" y="-14.55" font-family="Times New Roman,serif" baseline-shift="sub" font-size="14.00">0</text>
</g>
<!-- &#45;&gt;s0 -->
<g id="edge1" class="edge">
<title>&#45;&gt;s0</title>
<path fill="none" stroke="black" d="M53.94,-18.6C61.98,-18.6 70.9,-18.6 79.16,-18.6"/>
<polygon fill="black" stroke="black" points="79.09,-22.1 89.09,-18.6 79.09,-15.1 79.09,-22.1"/>
</g>
<!-- s2 -->
<g id="node4" class="node">
<title>s2</title>
<ellipse fill="none" stroke="black" cx="188.79" cy="-18.6" rx="18.6" ry="18.6"/>
<text xml:space="preserve" text-anchor="start" x="183.16" y="-14.55" font-family="Times New Roman,serif" font-size="14.00">s</text>
<text xml:space="preserve" text-anchor="start" x="188.41" y="-14.55" font-family="Times New Roman,serif" baseline-shift="sub" font-size="14.00">2</text>
</g>
<!-- s0&#45;&gt;s2 -->
<g id="edge2" class="edge">
<title>s0&#45;&gt;s2</title>
<path fill="none" stroke="black" d="M128.5,-18.6C137.4,-18.6 148.38,-18.6 158.47,-18.6"/>
<polygon fill="black" stroke="black" points="158.2,-22.1 168.2,-18.6 158.2,-15.1 158.2,-22.1"/>
<text xml:space="preserve" text-anchor="middle" x="149.19" y="-21.8" font-family="Times New Roman,serif" font-size="14.00">a</text>
</g>
<!-- s1 -->
<g id="node3" class="node">
<title>s1</title>
<ellipse fill="none" stroke="black" cx="426.36" cy="-18.6" rx="18.6" ry="18.6"/>
<text xml:space="preserve" text-anchor="start" x="420.74" y="-14.55" font-family="Times New Roman,serif" font-size="14.00">s</text>
<text xml:space="preserve" text-anchor="start" x="425.99" y="-14.55" font-family="Times New Roman,serif" baseline-shift="sub" font-size="14.00">1</text>
</g>
<!-- s5 -->
<g id="node7" class="node">
<title>s5</title>
<ellipse fill="none" stroke="black" cx="504.96" cy="-18.6" rx="18" ry="18"/>
<text xml:space="preserve" text-anchor="middle" x="504.96" y="-13.55" font-family="Times New Roman,serif" font-size="14.00">?</text>
</g>
<!-- s1&#45;&gt;s5 -->
<g id="edge6" class="edge">
<title>s1&#45;&gt;s5</title>
<path fill="none" stroke="black" d="M445.13,-18.6C454.08,-18.6 465.17,-18.6 475.29,-18.6"/>
<polygon fill="black" stroke="black" points="475.04,-22.1 485.04,-18.6 475.04,-15.1 475.04,-22.1"/>
<text xml:space="preserve" text-anchor="middle" x="465.96" y="-21.8" font-family="Times New Roman,serif" font-size="14.00">a</text>
</g>
<!-- s4 -->
<g id="node6" class="node">
<title>s4</title>
<ellipse fill="none" stroke="black" cx="267.98" cy="-18.6" rx="18.6" ry="18.6"/>
<text xml:space="preserve" text-anchor="start" x="262.35" y="-14.55" font-family="Times New Roman,serif" font-size="14.00">s</text>
<text xml:space="preserve" text-anchor="start" x="267.6" y="-14.55" font-family="Times New Roman,serif" baseline-shift="sub" font-size="14.00">4</text>
</g>
<!-- s2&#45;&gt;s4 -->
<g id="edge3" class="edge">
<title>s2&#45;&gt;s4</title>
<path fill="none" stroke="black" d="M207.69,-18.6C216.59,-18.6 227.57,-18.6 237.66,-18.6"/>
<polygon fill="black" stroke="black" points="237.39,-22.1 247.39,-18.6 237.39,-15.1 237.39,-22.1"/>
<text xml:space="preserve" text-anchor="middle" x="228.38" y="-21.8" font-family="Times New Roman,serif" font-size="14.00">a</text>
</g>
<!-- s3 -->
<g id="node5" class="node">
<title>s3</title>
<ellipse fill="none" stroke="black" cx="347.17" cy="-18.6" rx="18.6" ry="18.6"/>
<text xml:space="preserve" text-anchor="start" x="341.54" y="-14.55" font-family="Times New Roman,serif" font-size="14.00">s</text>
<text xml:space="preserve" text-anchor="start" x="346.79" y="-14.55" font-family="Times New Roman,serif" baseline-shift="sub" font-size="14.00">3</text>
</g>
<!-- s3&#45;&gt;s1 -->
<g id="edge5" class="edge">
<title>s3&#45;&gt;s1</title>
<path fill="none" stroke="black" d="M366.07,-18.6C374.97,-18.6 385.96,-18.6 396.04,-18.6"/>
<polygon fill="black" stroke="black" points="395.77,-22.1 405.77,-18.6 395.77,-15.1 395.77,-22.1"/>
<text xml:space="preserve" text-anchor="middle" x="386.77" y="-21.8" font-family="Times New Roman,serif" font-size="14.00">a</text>
</g>
<!-- s4&#45;&gt;s3 -->
<g id="edge4" class="edge">
<title>s4&#45;&gt;s3</title>
<path fill="none" stroke="black" d="M286.88,-18.6C295.78,-18.6 306.76,-18.6 316.85,-18.6"/>
<polygon fill="black" stroke="black" points="316.58,-22.1 326.58,-18.6 316.58,-15.1 316.58,-22.1"/>
<text xml:space="preserve" text-anchor="middle" x="307.57" y="-21.8" font-family="Times New Roman,serif" font-size="14.00">a</text>
</g>
</g>
</svg>