<?xml version="1.0" encoding="UTF-8" standalone="no"?>
<!DOCTYPE svg PUBLIC "-//W3C//DTD SVG 1.1//EN"
 "http://www.w3.org/Graphics/SVG/1.1/DTD/svg11.dtd">
<!-- Generated by graphviz version 13.1.2 (20250808.2320)
 -->
<!-- Pages: 1 -->
<svg width="183pt" height="411pt"
 viewBox="0.00 0.00 183.00 411.00" xmlns="http://www.w3.org/2000/svg" xmlns:xlink="http://www.w3.org/1999/xlink">
<g id="graph0" class="graph" transform="scale(1 1) rotate(0) translate(4 407.01)">
<polygon fill="white" stroke="none" points="-4,4 -4,-407.01 179.38,-407.01 179.38,4 -4,4"/>
<g id="node1" class="node">
<title></title>
</g>
<!-- start state -->
<g id="node2" class="node">
<title>start state</title>
<ellipse fill="none" stroke="black" cx="46.23" cy="-283.77" rx="46.23" ry="46.23"/>
<text xml:space="preserve" text-anchor="middle" x="46.23" y="-278.72" font-family="Times New Roman,serif" font-size="14.00">start state</text>
</g>
<!-- &#45;&gt;start state -->
<g id="edge1" class="edge">
<title>&#45;&gt;start state</title>
<path fill="none" stroke="black" d="M46.23,-367.17C46.23,-359.94 46.23,-351.02 46.23,-341.76"/>
<polygon fill="black" stroke="black" points="49.73,-341.88 46.23,-331.88 42.73,-341.88 49.73,-341.88"/>
</g>
<!-- fail state -->
<g id="node3" class="node">
<title>fail state</title>
<ellipse fill="none" stroke="black" cx="98.23" cy="-42.65" rx="42.65" ry="42.65"/>
<text xml:space="preserve" text-anchor="middle" x="98.23" y="-37.6" font-family="Times New Roman,serif" font-size="14.00">fail state</text>
</g>
<!-- start state&#45;&gt;fail state -->
<g id="edge2" class="edge">
<title>start state&#45;&gt;fail state</title>
<path fill="none" stroke="black" d="M55.95,-238.08C64.73,-197.71 77.65,-138.29 86.9,-95.78"/>
<polygon fill="black" stroke="black" points="90.32,-96.53 89.02,-86.02 83.48,-95.04 90.32,-96.53"/>
<text xml:space="preserve" text-anchor="middle" x="80.78" y="-156.37" font-family="Times New Roman,serif" font-size="14.00">b</text>
</g>
<!-- 1a -->
<g id="node4" class="node">
<title>1a</title>
<ellipse fill="none" stroke="black" cx="146.23" cy="-283.77" rx="18" ry="18"/>
<text xml:space="preserve" text-anchor="middle" x="146.23" y="-278.72" font-family="Times New Roman,serif" font-size="14.00">a</text>
</g>
<!-- start state&#45;&gt;1a -->
<g id="edge3" class="edge">
<title>start state&#45;&gt;1a</title>
<path fill="none" stroke="black" d="M92.72,-283.77C100.79,-283.77 108.98,-283.77 116.45,-283.77"/>
<polygon fill="black" stroke="black" points="116.31,-287.27 126.31,-283.77 116.31,-280.27 116.31,-287.27"/>
<text xml:space="preserve" text-anchor="middle" x="110.35" y="-289.97" font-family="Times New Roman,serif" font-size="14.00">a</text>
</g>
<!-- fail state&#45;&gt;fail state -->
<g id="edge7" class="edge">
<title>fail state&#45;&gt;fail state</title>
<path fill="none" stroke="black" d="M139.34,-55.47C150.44,-54.8 158.88,-50.52 158.88,-42.65 158.88,-37.73 155.58,-34.22 150.4,-32.11"/>
<polygon fill="black" stroke="black" points="151.32,-28.72 140.82,-30.13 149.91,-35.58 151.32,-28.72"/>
<text xml:space="preserve" text-anchor="middle" x="167.13" y="-37.6" font-family="Times New Roman,serif" font-size="14.00">a,b</text>
</g>
<!-- 1a&#45;&gt;fail state -->
<g id="edge5" class="edge">
<title>1a&#45;&gt;fail state</title>
<path fill="none" stroke="black" d="M138.3,-267.35C129.02,-248.49 114.06,-215.34 107.23,-185.04 100.78,-156.4 98.39,-123.74 97.67,-97.03"/>
<polygon fill="black" stroke="black" points="101.17,-97.04 97.49,-87.11 94.18,-97.17 101.17,-97.04"/>
<text xml:space="preserve" text-anchor="middle" x="110.23" y="-156.37" font-family="Times New Roman,serif" font-size="14.00">a</text>
</g>
<!-- 1a1b -->
<g id="node5" class="node">
<title>1a1b</title>
<ellipse fill="none" stroke="black" cx="146.23" cy="-161.42" rx="19.62" ry="19.62"/>
<ellipse fill="none" stroke="black" cx="146.23" cy="-161.42" rx="23.62" ry="23.62"/>
<text xml:space="preserve" text-anchor="middle" x="146.23" y="-156.37" font-family="Times New Roman,serif" font-size="14.00">ab</text>
</g>
<!-- 1a&#45;&gt;1a1b -->
<g id="edge4" class="edge">
<title>1a&#45;&gt;1a1b</title>
<path fill="none" stroke="black" d="M146.23,-265.53C146.23,-247.68 146.23,-219.31 146.23,-196.84"/>
<polygon fill="black" stroke="black" points="149.73,-196.91 146.23,-186.91 142.73,-196.91 149.73,-196.91"/>
<text xml:space="preserve" text-anchor="middle" x="149.61" y="-206.24" font-family="Times New Roman,serif" font-size="14.00">b</text>
</g>
<!-- 1a1b&#45;&gt;fail state -->
<g id="edge6" class="edge">
<title>1a1b&#45;&gt;fail state</title>
<path fill="none" stroke="black" d="M137.43,-139C132.1,-126.04 125.07,-108.95 118.44,-92.82"/>
<polygon fill="black" stroke="black" points="121.78,-91.73 114.74,-83.81 115.31,-94.39 121.78,-91.73"/>
<text xml:space="preserve" text-anchor="middle" x="137.59" y="-106.5" font-family="Times New Roman,serif" font-size="14.00">a,b</text>
</g>
</g>
</svg>