<?xml version="1.0" encoding="UTF-8" standalone="no"?>
<!DOCTYPE svg PUBLIC "-//W3C//DTD SVG 1.1//EN"
 "http://www.w3.org/Graphics/SVG/1.1/DTD/svg11.dtd">
<!-- Generated by graphviz version 13.1.2 (20250808.2320)
 -->
<!-- Pages: 1 -->
<svg width="236pt" height="189pt"
 viewBox="0.00 0.00 236.00 189.00" xmlns="http://www.w3.org/2000/svg" xmlns:xlink="http://www.w3.org/1999/xlink">
<g id="graph0" class="graph" transform="scale(1 1) rotate(0) translate(4 185.26)">
<polygon fill="white" stroke="none" points="-4,4 -4,-185.26 232.27,-185.26 232.27,4 -4,4"/>
<g id="node1" class="node">
<title></title>
</g>
<!-- q0 -->
<g id="node2" class="node">
<title>q0</title>
<ellipse fill="none" stroke="black" cx="111.13" cy="-71.13" rx="20.13" ry="20.13"/>
<text xml:space="preserve" text-anchor="middle" x="111.13" y="-66.08" font-family="Times New Roman,serif" font-size="14.00">q0</text>
</g>
<!-- &#45;&gt;q0 -->
<g id="edge1" class="edge">
<title>&#45;&gt;q0</title>
<path fill="none" stroke="black" d="M53.99,-71.13C62.04,-71.13 70.98,-71.13 79.33,-71.13"/>
<polygon fill="black" stroke="black" points="79.05,-74.63 89.05,-71.13 79.05,-67.63 79.05,-74.63"/>
</g>
<!-- q0&#45;&gt;q0 -->
<g id="edge2" class="edge">
<title>q0&#45;&gt;q0</title>
<path fill="none" stroke="black" d="M104.14,-90.36C103.07,-100.3 105.4,-109.26 111.13,-109.26 114.45,-109.26 116.62,-106.27 117.66,-101.82"/>
<polygon fill="black" stroke="black" points="121.16,-102 118.06,-91.87 114.16,-101.72 121.16,-102"/>
<text xml:space="preserve" text-anchor="middle" x="111.13" y="-112.46" font-family="Times New Roman,serif" font-size="14.00">a,b</text>
</g>
<!-- q1 -->
<g id="node3" class="node">
<title>q1</title>
<ellipse fill="none" stroke="black" cx="204.14" cy="-157.13" rx="20.13" ry="20.13"/>
<ellipse fill="none" stroke="black" cx="204.14" cy="-157.13" rx="24.13" ry="24.13"/>
<text xml:space="preserve" text-anchor="middle" x="204.14" y="-152.08" font-family="Times New Roman,serif" font-size="14.00">q1</text>
</g>
<!-- q0&#45;&gt;q1 -->
<g id="edge3" class="edge">
<title>q0&#45;&gt;q1</title>
<path fill="none" stroke="black" d="M126.35,-84.57C140.06,-97.52 161.11,-117.41 177.71,-133.1"/>
<polygon fill="black" stroke="black" points="175.15,-135.49 184.82,-139.81 179.95,-130.4 175.15,-135.49"/>
<text xml:space="preserve" text-anchor="middle" x="155.64" y="-119.91" font-family="Times New Roman,serif" font-size="14.00">a</text>
</g>
<!-- q2 -->
<g id="node4" class="node">
<title>q2</title>
<ellipse fill="none" stroke="black" cx="204.14" cy="-91.13" rx="20.13" ry="20.13"/>
<ellipse fill="none" stroke="black" cx="204.14" cy="-91.13" rx="24.13" ry="24.13"/>
<text xml:space="preserve" text-anchor="middle" x="204.14" y="-86.08" font-family="Times New Roman,serif" font-size="14.00">q2</text>
</g>
<!-- q0&#45;&gt;q2 -->
<g id="edge4" class="edge">
<title>q0&#45;&gt;q2</title>
<path fill="none" stroke="black" d="M130.99,-75.28C142.02,-77.7 156.28,-80.83 169.21,-83.67"/>
<polygon fill="black" stroke="black" points="168.12,-87.02 178.63,-85.75 169.62,-80.18 168.12,-87.02"/>
<text xml:space="preserve" text-anchor="middle" x="155.64" y="-84.93" font-family="Times New Roman,serif" font-size="14.00">b</text>
</g>
<!-- q3 -->
<g id="node5" class="node">
<title>q3</title>
<ellipse fill="none" stroke="black" cx="204.14" cy="-20.13" rx="20.13" ry="20.13"/>
<text xml:space="preserve" text-anchor="middle" x="204.14" y="-15.08" font-family="Times New Roman,serif" font-size="14.00">q3</text>
</g>
<!-- q0&#45;&gt;q3 -->
<g id="edge5" class="edge">
<title>q0&#45;&gt;q3</title>
<path fill="none" stroke="black" d="M129.25,-61.54C142.47,-54.13 161.01,-43.74 176.22,-35.22"/>
<polygon fill="black" stroke="black" points="177.77,-38.36 184.78,-30.42 174.35,-32.26 177.77,-38.36"/>
<text xml:space="preserve" text-anchor="middle" x="155.64" y="-53.4" font-family="Times New Roman,serif" font-size="14.00">ab</text>
</g>
<!-- q3&#45;&gt;q0 -->
<g id="edge6" class="edge">
<title>q3&#45;&gt;q0</title>
<path fill="none" stroke="black" d="M183.91,-17.66C173.13,-17.16 159.79,-18.07 149.26,-23.63 140.45,-28.29 133.05,-36.06 127.24,-43.98"/>
<polygon fill="black" stroke="black" points="124.36,-41.98 121.78,-52.25 130.21,-45.83 124.36,-41.98"/>
<text xml:space="preserve" text-anchor="middle" x="155.64" y="-26.83" font-family="Times New Roman,serif" font-size="14.00">ba</text>
</g>
</g>
</svg>