<?xml version="1.0" encoding="UTF-8" standalone="no"?>
<!DOCTYPE svg PUBLIC "-//W3C//DTD SVG 1.1//EN"
 "http://www.w3.org/Graphics/SVG/1.1/DTD/svg11.dtd">
<!-- Generated by graphviz version 13.1.2 (20250808.2320)
 -->
<!-- Pages: 1 -->
<svg width="319pt" height="87pt"
 viewBox="0.00 0.00 319.00 87.00" xmlns="http://www.w3.org/2000/svg" xmlns:xlink="http://www.w3.org/1999/xlink">
<g id="graph0" class="graph" transform="scale(1 1) rotate(0) translate(4 82.76)">
<polygon fill="white" stroke="none" points="-4,4 -4,-82.76 314.54,-82.76 314.54,4 -4,4"/>
<g id="node1" class="node">
<title></title>
</g>
<!-- q0 -->
<g id="node2" class="node">
<title>q0</title>
<ellipse fill="none" stroke="black" cx="111.13" cy="-24.13" rx="20.13" ry="20.13"/>
<text xml:space="preserve" text-anchor="middle" x="111.13" y="-19.08" font-family="Times New Roman,serif" font-size="14.00">q0</text>
</g>
<!-- &#45;&gt;q0 -->
<g id="edge1" class="edge">
<title>&#45;&gt;q0</title>
<path fill="none" stroke="black" d="M53.99,-24.13C62.04,-24.13 70.98,-24.13 79.33,-24.13"/>
<polygon fill="black" stroke="black" points="79.05,-27.63 89.05,-24.13 79.05,-20.63 79.05,-27.63"/>
</g>
<!-- q1 -->
<g id="node3" class="node">
<title>q1</title>
<ellipse fill="none" stroke="black" cx="193.39" cy="-24.13" rx="20.13" ry="20.13"/>
<text xml:space="preserve" text-anchor="middle" x="193.39" y="-19.08" font-family="Times New Roman,serif" font-size="14.00">q1</text>
</g>
<!-- q0&#45;&gt;q1 -->
<g id="edge2" class="edge">
<title>q0&#45;&gt;q1</title>
<path fill="none" stroke="black" d="M131.56,-24.13C140.56,-24.13 151.48,-24.13 161.57,-24.13"/>
<polygon fill="black" stroke="black" points="161.35,-27.63 171.35,-24.13 161.35,-20.63 161.35,-27.63"/>
<text xml:space="preserve" text-anchor="middle" x="152.26" y="-27.33" font-family="Times New Roman,serif" font-size="14.00">a</text>
</g>
<!-- q1&#45;&gt;q1 -->
<g id="edge3" class="edge">
<title>q1&#45;&gt;q1</title>
<path fill="none" stroke="black" d="M185.95,-43.36C184.81,-53.3 187.29,-62.26 193.39,-62.26 196.92,-62.26 199.24,-59.27 200.35,-54.82"/>
<polygon fill="black" stroke="black" points="203.84,-55.01 200.77,-44.87 196.85,-54.71 203.84,-55.01"/>
<text xml:space="preserve" text-anchor="middle" x="193.39" y="-65.46" font-family="Times New Roman,serif" font-size="14.00">b*</text>
</g>
<!-- q2 -->
<g id="node4" class="node">
<title>q2</title>
<ellipse fill="none" stroke="black" cx="286.41" cy="-24.13" rx="20.13" ry="20.13"/>
<ellipse fill="none" stroke="black" cx="286.41" cy="-24.13" rx="24.13" ry="24.13"/>
<text xml:space="preserve" text-anchor="middle" x="286.41" y="-19.08" font-family="Times New Roman,serif" font-size="14.00">q2</text>
</g>
<!-- q1&#45;&gt;q2 -->
<g id="edge4" class="edge">
<title>q1&#45;&gt;q2</title>
<path fill="none" stroke="black" d="M213.69,-24.13C224.37,-24.13 237.97,-24.13 250.44,-24.13"/>
<polygon fill="black" stroke="black" points="250.42,-27.63 260.42,-24.13 250.42,-20.63 250.42,-27.63"/>
<text xml:space="preserve" text-anchor="middle" x="237.9" y="-27.33" font-family="Times New Roman,serif" font-size="14.00">ab</text>
</g>
</g>
</svg>