<?xml version="1.0" encoding="UTF-8" standalone="no"?>
<!DOCTYPE svg PUBLIC "-//W3C//DTD SVG 1.1//EN"
 "http://www.w3.org/Graphics/SVG/1.1/DTD/svg11.dtd">
<!-- Generated by graphviz version 13.1.2 (20250808.2320)
 -->
<!-- Pages: 1 -->
<svg width="406pt" height="91pt"
 viewBox="0.00 0.00 406.00 91.00" xmlns="http://www.w3.org/2000/svg" xmlns:xlink="http://www.w3.org/1999/xlink">
<g id="graph0" class="graph" transform="scale(1 1) rotate(0) translate(4 87.26)">
<polygon fill="white" stroke="none" points="-4,4 -4,-87.26 402.05,-87.26 402.05,4 -4,4"/>
<g id="node1" class="node">
<title></title>
</g>
<!-- q0 -->
<g id="node2" class="node">
<title>q0</title>
<ellipse fill="none" stroke="black" cx="111.13" cy="-24.13" rx="20.13" ry="20.13"/>
<text xml:space="preserve" text-anchor="middle" x="111.13" y="-19.08" font-family="Times New Roman,serif" font-size="14.00">q0</text>
</g>
<!-- &#45;&gt;q0 -->
<g id="edge1" class="edge">
<title>&#45;&gt;q0</title>
<path fill="none" stroke="black" d="M53.99,-24.13C62.04,-24.13 70.98,-24.13 79.33,-24.13"/>
<polygon fill="black" stroke="black" points="79.05,-27.63 89.05,-24.13 79.05,-20.63 79.05,-27.63"/>
</g>
<!-- q0&#45;&gt;q0 -->
<g id="edge2" class="edge">
<title>q0&#45;&gt;q0</title>
<path fill="none" stroke="black" d="M104.14,-43.36C103.07,-53.3 105.4,-62.26 111.13,-62.26 114.45,-62.26 116.62,-59.27 117.66,-54.82"/>
<polygon fill="black" stroke="black" points="121.16,-55 118.06,-44.87 114.16,-54.72 121.16,-55"/>
<text xml:space="preserve" text-anchor="middle" x="111.13" y="-65.46" font-family="Times New Roman,serif" font-size="14.00">b</text>
</g>
<!-- q1 -->
<g id="node3" class="node">
<title>q1</title>
<ellipse fill="none" stroke="black" cx="203.89" cy="-63.13" rx="20.13" ry="20.13"/>
<text xml:space="preserve" text-anchor="middle" x="203.89" y="-58.08" font-family="Times New Roman,serif" font-size="14.00">q1</text>
</g>
<!-- q0&#45;&gt;q1 -->
<g id="edge3" class="edge">
<title>q0&#45;&gt;q1</title>
<path fill="none" stroke="black" d="M130.06,-31.84C142.74,-37.28 160,-44.7 174.54,-50.95"/>
<polygon fill="black" stroke="black" points="173.04,-54.11 183.61,-54.84 175.8,-47.68 173.04,-54.11"/>
<text xml:space="preserve" text-anchor="middle" x="157.51" y="-50.32" font-family="Times New Roman,serif" font-size="14.00">a,b</text>
</g>
<!-- q2 -->
<g id="node4" class="node">
<title>q2</title>
<ellipse fill="none" stroke="black" cx="286.91" cy="-24.13" rx="20.13" ry="20.13"/>
<text xml:space="preserve" text-anchor="middle" x="286.91" y="-19.08" font-family="Times New Roman,serif" font-size="14.00">q2</text>
</g>
<!-- q1&#45;&gt;q2 -->
<g id="edge4" class="edge">
<title>q1&#45;&gt;q2</title>
<path fill="none" stroke="black" d="M222.47,-54.67C232.88,-49.66 246.29,-43.2 258.1,-37.52"/>
<polygon fill="black" stroke="black" points="259.51,-40.72 267,-33.23 256.47,-34.42 259.51,-40.72"/>
<text xml:space="preserve" text-anchor="middle" x="245.4" y="-48" font-family="Times New Roman,serif" font-size="14.00">b</text>
</g>
<!-- q2&#45;&gt;q0 -->
<g id="edge5" class="edge">
<title>q2&#45;&gt;q0</title>
<path fill="none" stroke="black" d="M266.44,-21.56C254.27,-20.08 238.26,-18.38 224.02,-17.63 196.52,-16.19 165.22,-18.33 142.73,-20.53"/>
<polygon fill="black" stroke="black" points="142.62,-17.02 133.04,-21.55 143.35,-23.99 142.62,-17.02"/>
<text xml:space="preserve" text-anchor="middle" x="203.89" y="-20.83" font-family="Times New Roman,serif" font-size="14.00">a</text>
</g>
<!-- q3 -->
<g id="node5" class="node">
<title>q3</title>
<ellipse fill="none" stroke="black" cx="373.92" cy="-24.13" rx="20.13" ry="20.13"/>
<ellipse fill="none" stroke="black" cx="373.92" cy="-24.13" rx="24.13" ry="24.13"/>
<text xml:space="preserve" text-anchor="middle" x="373.92" y="-19.08" font-family="Times New Roman,serif" font-size="14.00">q3</text>
</g>
<!-- q2&#45;&gt;q3 -->
<g id="edge6" class="edge">
<title>q2&#45;&gt;q3</title>
<path fill="none" stroke="black" d="M307.2,-24.13C316.31,-24.13 327.47,-24.13 338,-24.13"/>
<polygon fill="black" stroke="black" points="337.95,-27.63 347.95,-24.13 337.95,-20.63 337.95,-27.63"/>
<text xml:space="preserve" text-anchor="start" x="325.04" y="-27.33" font-family="Times New Roman,serif" font-size="14.00">λ</text>
</g>
<!-- q3&#45;&gt;q3 -->
<g id="edge7" class="edge">
<title>q3&#45;&gt;q3</title>
<path fill="none" stroke="black" d="M365.52,-47.1C364.72,-57.38 367.52,-66.26 373.92,-66.26 377.72,-66.26 380.25,-63.13 381.51,-58.43"/>
<polygon fill="black" stroke="black" points="384.99,-58.83 382.21,-48.61 378.01,-58.34 384.99,-58.83"/>
<text xml:space="preserve" text-anchor="middle" x="373.92" y="-69.46" font-family="Times New Roman,serif" font-size="14.00">a,b</text>
</g>
</g>
</svg>