<?xml version="1.0" encoding="UTF-8" standalone="no"?>
<!DOCTYPE svg PUBLIC "-//W3C//DTD SVG 1.1//EN"
 "http://www.w3.org/Graphics/SVG/1.1/DTD/svg11.dtd">
<!-- Generated by graphviz version 13.1.2 (20250808.2320)
 -->
<!-- Pages: 1 -->
<svg width="230pt" height="91pt"
 viewBox="0.00 0.00 230.00 91.00" xmlns="http://www.w3.org/2000/svg" xmlns:xlink="http://www.w3.org/1999/xlink">
<g id="graph0" class="graph" transform="scale(1 1) rotate(0) translate(4 86.76)">
<polygon fill="white" stroke="none" points="-4,4 -4,-86.76 226.27,-86.76 226.27,4 -4,4"/>
<g id="node1" class="node">
<title></title>
</g>
<!-- x1 -->
<g id="node2" class="node">
<title>x1</title>
<ellipse fill="none" stroke="black" cx="111.13" cy="-24.13" rx="20.13" ry="20.13"/>
<text xml:space="preserve" text-anchor="middle" x="111.13" y="-19.08" font-family="Times New Roman,serif" font-size="14.00">x1</text>
</g>
<!-- &#45;&gt;x1 -->
<g id="edge1" class="edge">
<title>&#45;&gt;x1</title>
<path fill="none" stroke="black" d="M53.99,-24.13C62.04,-24.13 70.98,-24.13 79.33,-24.13"/>
<polygon fill="black" stroke="black" points="79.05,-27.63 89.05,-24.13 79.05,-20.63 79.05,-27.63"/>
</g>
<!-- x1&#45;&gt;x1 -->
<g id="edge3" class="edge">
<title>x1&#45;&gt;x1</title>
<path fill="none" stroke="black" d="M104.14,-43.36C103.07,-53.3 105.4,-62.26 111.13,-62.26 114.45,-62.26 116.62,-59.27 117.66,-54.82"/>
<polygon fill="black" stroke="black" points="121.16,-55 118.06,-44.87 114.16,-54.72 121.16,-55"/>
<text xml:space="preserve" text-anchor="middle" x="111.13" y="-65.46" font-family="Times New Roman,serif" font-size="14.00">b</text>
</g>
<!-- x2 -->
<g id="node3" class="node">
<title>x2</title>
<ellipse fill="none" stroke="black" cx="198.14" cy="-24.13" rx="20.13" ry="20.13"/>
<ellipse fill="none" stroke="black" cx="198.14" cy="-24.13" rx="24.13" ry="24.13"/>
<text xml:space="preserve" text-anchor="middle" x="198.14" y="-19.08" font-family="Times New Roman,serif" font-size="14.00">x2</text>
</g>
<!-- x1&#45;&gt;x2 -->
<g id="edge2" class="edge">
<title>x1&#45;&gt;x2</title>
<path fill="none" stroke="black" d="M131.42,-24.13C140.53,-24.13 151.7,-24.13 162.22,-24.13"/>
<polygon fill="black" stroke="black" points="162.17,-27.63 172.17,-24.13 162.17,-20.63 162.17,-27.63"/>
<text xml:space="preserve" text-anchor="middle" x="152.64" y="-27.33" font-family="Times New Roman,serif" font-size="14.00">a</text>
</g>
<!-- x2&#45;&gt;x1 -->
<g id="edge5" class="edge">
<title>x2&#45;&gt;x1</title>
<path fill="none" stroke="black" d="M178.5,-9.83C169.83,-4.84 159.24,-1.06 149.26,-3.63 145.63,-4.57 141.96,-5.95 138.43,-7.55"/>
<polygon fill="black" stroke="black" points="136.94,-4.38 129.72,-12.13 140.2,-10.58 136.94,-4.38"/>
<text xml:space="preserve" text-anchor="middle" x="152.64" y="-6.83" font-family="Times New Roman,serif" font-size="14.00">b</text>
</g>
<!-- x2&#45;&gt;x2 -->
<g id="edge4" class="edge">
<title>x2&#45;&gt;x2</title>
<path fill="none" stroke="black" d="M189.74,-47.1C188.94,-57.38 191.74,-66.26 198.14,-66.26 201.94,-66.26 204.47,-63.13 205.74,-58.43"/>
<polygon fill="black" stroke="black" points="209.22,-58.83 206.43,-48.61 202.23,-58.34 209.22,-58.83"/>
<text xml:space="preserve" text-anchor="middle" x="198.14" y="-69.46" font-family="Times New Roman,serif" font-size="14.00">a</text>
</g>
</g>
</svg>