<?xml version="1.0" encoding="UTF-8" standalone="no"?>
<!DOCTYPE svg PUBLIC "-//W3C//DTD SVG 1.1//EN"
 "http://www.w3.org/Graphics/SVG/1.1/DTD/svg11.dtd">
<!-- Generated by graphviz version 13.1.2 (20250808.2320)
 -->
<!-- Pages: 1 -->
<svg width="427pt" height="221pt"
 viewBox="0.00 0.00 427.00 221.00" xmlns="http://www.w3.org/2000/svg" xmlns:xlink="http://www.w3.org/1999/xlink">
<g id="graph0" class="graph" transform="scale(1 1) rotate(0) translate(4 217.31)">
<polygon fill="white" stroke="none" points="-4,4 -4,-217.31 422.56,-217.31 422.56,4 -4,4"/>
<g id="node1" class="node">
<title></title>
</g>
<!-- x1,y1 -->
<g id="node2" class="node">
<title>x1,y1</title>
<ellipse fill="none" stroke="black" cx="122.9" cy="-35.9" rx="31.9" ry="31.9"/>
<text xml:space="preserve" text-anchor="middle" x="122.9" y="-30.85" font-family="Times New Roman,serif" font-size="14.00">x1,y1</text>
</g>
<!-- &#45;&gt;x1,y1 -->
<g id="edge1" class="edge">
<title>&#45;&gt;x1,y1</title>
<path fill="none" stroke="black" d="M53.91,-35.9C61.83,-35.9 70.77,-35.9 79.49,-35.9"/>
<polygon fill="black" stroke="black" points="79.23,-39.4 89.23,-35.9 79.23,-32.4 79.23,-39.4"/>
</g>
<!-- x1,y1&#45;&gt;x1,y1 -->
<g id="edge3" class="edge">
<title>x1,y1&#45;&gt;x1,y1</title>
<path fill="none" stroke="black" d="M113.45,-66.6C113.35,-77.23 116.5,-85.81 122.9,-85.81 126.8,-85.81 129.49,-82.62 130.98,-77.73"/>
<polygon fill="black" stroke="black" points="134.42,-78.46 132.17,-68.11 127.47,-77.6 134.42,-78.46"/>
<text xml:space="preserve" text-anchor="middle" x="122.9" y="-89.01" font-family="Times New Roman,serif" font-size="14.00">b</text>
</g>
<!-- x2,y2 -->
<g id="node3" class="node">
<title>x2,y2</title>
<ellipse fill="none" stroke="black" cx="232.71" cy="-35.9" rx="31.9" ry="31.9"/>
<ellipse fill="none" stroke="black" cx="232.71" cy="-35.9" rx="35.9" ry="35.9"/>
<text xml:space="preserve" text-anchor="middle" x="232.71" y="-30.85" font-family="Times New Roman,serif" font-size="14.00">x2,y2</text>
</g>
<!-- x1,y1&#45;&gt;x2,y2 -->
<g id="edge2" class="edge">
<title>x1,y1&#45;&gt;x2,y2</title>
<path fill="none" stroke="black" d="M155.08,-35.9C164.48,-35.9 175.01,-35.9 185.18,-35.9"/>
<polygon fill="black" stroke="black" points="184.91,-39.4 194.91,-35.9 184.91,-32.4 184.91,-39.4"/>
<text xml:space="preserve" text-anchor="middle" x="175.81" y="-39.1" font-family="Times New Roman,serif" font-size="14.00">a</text>
</g>
<!-- x2,y2&#45;&gt;x2,y2 -->
<g id="edge4" class="edge">
<title>x2,y2&#45;&gt;x2,y2</title>
<path fill="none" stroke="black" d="M222.05,-70.64C222.26,-81.37 225.82,-89.81 232.71,-89.81 236.91,-89.81 239.87,-86.67 241.59,-81.8"/>
<polygon fill="black" stroke="black" points="245.01,-82.56 243.13,-72.13 238.1,-81.46 245.01,-82.56"/>
<text xml:space="preserve" text-anchor="middle" x="232.71" y="-93.01" font-family="Times New Roman,serif" font-size="14.00">a</text>
</g>
<!-- x1,y3 -->
<g id="node4" class="node">
<title>x1,y3</title>
<ellipse fill="none" stroke="black" cx="347.26" cy="-35.9" rx="31.9" ry="31.9"/>
<ellipse fill="none" stroke="black" cx="347.26" cy="-35.9" rx="35.9" ry="35.9"/>
<text xml:space="preserve" text-anchor="middle" x="347.26" y="-30.85" font-family="Times New Roman,serif" font-size="14.00">x1,y3</text>
</g>
<!-- x2,y2&#45;&gt;x1,y3 -->
<g id="edge5" class="edge">
<title>x2,y2&#45;&gt;x1,y3</title>
<path fill="none" stroke="black" d="M269.01,-35.9C278.76,-35.9 289.48,-35.9 299.75,-35.9"/>
<polygon fill="black" stroke="black" points="299.57,-39.4 309.57,-35.9 299.57,-32.4 299.57,-39.4"/>
<text xml:space="preserve" text-anchor="middle" x="289.99" y="-39.1" font-family="Times New Roman,serif" font-size="14.00">b</text>
</g>
<!-- x1,y3&#45;&gt;x1,y3 -->
<g id="edge7" class="edge">
<title>x1,y3:e&#45;&gt;x1,y3:e</title>
<path fill="none" stroke="black" d="M383.5,-35.9C392.71,-44.9 411.81,-44.9 411.81,-35.9 411.81,-29.5 402.16,-27.65 393.27,-30.35"/>
<polygon fill="black" stroke="black" points="391.78,-27.17 384.82,-35.15 395.24,-33.26 391.78,-27.17"/>
<text xml:space="preserve" text-anchor="middle" x="415.18" y="-30.85" font-family="Times New Roman,serif" font-size="14.00">b</text>
</g>
<!-- x2,y3 -->
<g id="node5" class="node">
<title>x2,y3</title>
<ellipse fill="none" stroke="black" cx="347.26" cy="-142.9" rx="31.9" ry="31.9"/>
<ellipse fill="none" stroke="black" cx="347.26" cy="-142.9" rx="35.9" ry="35.9"/>
<text xml:space="preserve" text-anchor="middle" x="347.26" y="-137.85" font-family="Times New Roman,serif" font-size="14.00">x2,y3</text>
</g>
<!-- x1,y3&#45;&gt;x2,y3 -->
<g id="edge6" class="edge">
<title>x1,y3&#45;&gt;x2,y3</title>
<path fill="none" stroke="black" d="M362.05,-69.08C364,-74.76 365.7,-80.67 366.76,-86.4 367.6,-90.87 367.57,-95.45 366.96,-99.99"/>
<polygon fill="black" stroke="black" points="363.59,-99.07 364.74,-109.6 370.4,-100.65 363.59,-99.07"/>
<text xml:space="preserve" text-anchor="middle" x="358.51" y="-84.35" font-family="Times New Roman,serif" font-size="14.00">a</text>
</g>
<!-- x2,y3&#45;&gt;x1,y3 -->
<g id="edge9" class="edge">
<title>x2,y3&#45;&gt;x1,y3</title>
<path fill="none" stroke="black" d="M347.26,-106.71C347.26,-99.22 347.26,-91.22 347.26,-83.39"/>
<polygon fill="black" stroke="black" points="350.76,-83.64 347.26,-73.64 343.76,-83.64 350.76,-83.64"/>
<text xml:space="preserve" text-anchor="middle" x="336.01" y="-84.35" font-family="Times New Roman,serif" font-size="14.00">a</text>
</g>
<!-- x2,y3&#45;&gt;x2,y3 -->
<g id="edge8" class="edge">
<title>x2,y3&#45;&gt;x2,y3</title>
<path fill="none" stroke="black" d="M336.53,-177.64C336.75,-188.37 340.33,-196.81 347.26,-196.81 351.49,-196.81 354.47,-193.67 356.2,-188.8"/>
<polygon fill="black" stroke="black" points="359.62,-189.56 357.75,-179.13 352.71,-188.45 359.62,-189.56"/>
<text xml:space="preserve" text-anchor="middle" x="347.26" y="-200.01" font-family="Times New Roman,serif" font-size="14.00">a</text>
</g>
</g>
</svg>