<?xml version="1.0" encoding="UTF-8" standalone="no"?>
<!DOCTYPE svg PUBLIC "-//W3C//DTD SVG 1.1//EN"
 "http://www.w3.org/Graphics/SVG/1.1/DTD/svg11.dtd">
<!-- Generated by graphviz version 13.1.2 (20250808.2320)
 -->
<!-- Pages: 1 -->
<svg width="435pt" height="319pt"
 viewBox="0.00 0.00 435.00 319.00" xmlns="http://www.w3.org/2000/svg" xmlns:xlink="http://www.w3.org/1999/xlink">
<g id="graph0" class="graph" transform="scale(1 1) rotate(0) translate(4 315.31)">
<polygon fill="white" stroke="none" points="-4,4 -4,-315.31 430.56,-315.31 430.56,4 -4,4"/>
<g id="node1" class="node">
<title></title>
</g>
<!-- x1,y1 -->
<g id="node2" class="node">
<title>x1,y1</title>
<ellipse fill="none" stroke="black" cx="126.9" cy="-31.9" rx="31.9" ry="31.9"/>
<text xml:space="preserve" text-anchor="middle" x="126.9" y="-26.85" font-family="Times New Roman,serif" font-size="14.00">x1,y1</text>
</g>
<!-- &#45;&gt;x1,y1 -->
<g id="edge1" class="edge">
<title>&#45;&gt;x1,y1</title>
<path fill="none" stroke="black" d="M53.98,-31.9C62.94,-31.9 73.22,-31.9 83.16,-31.9"/>
<polygon fill="black" stroke="black" points="83.05,-35.4 93.05,-31.9 83.05,-28.4 83.05,-35.4"/>
</g>
<!-- x1,y1&#45;&gt;x1,y1 -->
<g id="edge3" class="edge">
<title>x1,y1:e&#45;&gt;x1,y1:e</title>
<path fill="none" stroke="black" d="M159.1,-31.9C167.87,-40.9 186.01,-40.9 186.01,-31.9 186.01,-25.64 177.24,-23.74 168.95,-26.18"/>
<polygon fill="black" stroke="black" points="167.3,-23.09 160.41,-31.14 170.82,-29.15 167.3,-23.09"/>
<text xml:space="preserve" text-anchor="middle" x="189.38" y="-26.85" font-family="Times New Roman,serif" font-size="14.00">b</text>
</g>
<!-- x2,y2 -->
<g id="node5" class="node">
<title>x2,y2</title>
<ellipse fill="none" stroke="black" cx="240.71" cy="-82.9" rx="31.9" ry="31.9"/>
<ellipse fill="none" stroke="black" cx="240.71" cy="-82.9" rx="35.9" ry="35.9"/>
<text xml:space="preserve" text-anchor="middle" x="240.71" y="-77.85" font-family="Times New Roman,serif" font-size="14.00">x2,y2</text>
</g>
<!-- x1,y1&#45;&gt;x2,y2 -->
<g id="edge2" class="edge">
<title>x1,y1&#45;&gt;x2,y2</title>
<path fill="none" stroke="black" d="M156.41,-44.9C168.88,-50.6 183.78,-57.39 197.5,-63.65"/>
<polygon fill="black" stroke="black" points="195.78,-66.71 206.33,-67.68 198.68,-60.34 195.78,-66.71"/>
<text xml:space="preserve" text-anchor="middle" x="183.81" y="-60.6" font-family="Times New Roman,serif" font-size="14.00">a</text>
</g>
<!-- x2,y1 -->
<g id="node3" class="node">
<title>x2,y1</title>
<ellipse fill="none" stroke="black" cx="126.9" cy="-134.9" rx="31.9" ry="31.9"/>
<ellipse fill="none" stroke="black" cx="126.9" cy="-134.9" rx="35.9" ry="35.9"/>
<text xml:space="preserve" text-anchor="middle" x="126.9" y="-129.85" font-family="Times New Roman,serif" font-size="14.00">x2,y1</text>
</g>
<!-- x2,y1&#45;&gt;x1,y1 -->
<g id="edge5" class="edge">
<title>x2,y1&#45;&gt;x1,y1</title>
<path fill="none" stroke="black" d="M126.9,-98.77C126.9,-91.29 126.9,-83.35 126.9,-75.64"/>
<polygon fill="black" stroke="black" points="130.4,-75.72 126.9,-65.72 123.4,-75.72 130.4,-75.72"/>
<text xml:space="preserve" text-anchor="middle" x="115.65" y="-76.35" font-family="Times New Roman,serif" font-size="14.00">b</text>
</g>
<!-- x2,y1&#45;&gt;x2,y2 -->
<g id="edge4" class="edge">
<title>x2,y1&#45;&gt;x2,y2</title>
<path fill="none" stroke="black" d="M159.94,-120C171.64,-114.56 185.05,-108.32 197.5,-102.54"/>
<polygon fill="black" stroke="black" points="198.7,-105.84 206.29,-98.44 195.75,-99.49 198.7,-105.84"/>
<text xml:space="preserve" text-anchor="middle" x="183.81" y="-112.1" font-family="Times New Roman,serif" font-size="14.00">a</text>
</g>
<!-- x1,y2 -->
<g id="node4" class="node">
<title>x1,y2</title>
<ellipse fill="none" stroke="black" cx="240.71" cy="-185.9" rx="31.9" ry="31.9"/>
<text xml:space="preserve" text-anchor="middle" x="240.71" y="-180.85" font-family="Times New Roman,serif" font-size="14.00">x1,y2</text>
</g>
<!-- x1,y2&#45;&gt;x2,y2 -->
<g id="edge6" class="edge">
<title>x1,y2&#45;&gt;x2,y2</title>
<path fill="none" stroke="black" d="M240.71,-153.69C240.71,-146.34 240.71,-138.38 240.71,-130.53"/>
<polygon fill="black" stroke="black" points="244.21,-130.73 240.71,-120.73 237.21,-130.73 244.21,-130.73"/>
<text xml:space="preserve" text-anchor="middle" x="229.46" y="-131.35" font-family="Times New Roman,serif" font-size="14.00">a</text>
</g>
<!-- x1,y3 -->
<g id="node6" class="node">
<title>x1,y3</title>
<ellipse fill="none" stroke="black" cx="355.26" cy="-133.9" rx="31.9" ry="31.9"/>
<ellipse fill="none" stroke="black" cx="355.26" cy="-133.9" rx="35.9" ry="35.9"/>
<text xml:space="preserve" text-anchor="middle" x="355.26" y="-128.85" font-family="Times New Roman,serif" font-size="14.00">x1,y3</text>
</g>
<!-- x1,y2&#45;&gt;x1,y3 -->
<g id="edge7" class="edge">
<title>x1,y2&#45;&gt;x1,y3</title>
<path fill="none" stroke="black" d="M270.11,-172.78C282.77,-166.93 297.95,-159.92 311.92,-153.47"/>
<polygon fill="black" stroke="black" points="313.31,-156.68 320.92,-149.31 310.37,-150.32 313.31,-156.68"/>
<text xml:space="preserve" text-anchor="middle" x="297.99" y="-164.66" font-family="Times New Roman,serif" font-size="14.00">b</text>
</g>
<!-- x2,y2&#45;&gt;x2,y2 -->
<g id="edge8" class="edge">
<title>x2,y2:e&#45;&gt;x2,y2:e</title>
<path fill="none" stroke="black" d="M276.95,-82.9C286.09,-91.9 305.06,-91.9 305.06,-82.9 305.06,-76.57 295.68,-74.7 286.94,-77.27"/>
<polygon fill="black" stroke="black" points="285.26,-74.2 278.27,-82.16 288.69,-80.29 285.26,-74.2"/>
<text xml:space="preserve" text-anchor="middle" x="308.06" y="-77.85" font-family="Times New Roman,serif" font-size="14.00">a</text>
</g>
<!-- x2,y2&#45;&gt;x1,y3 -->
<g id="edge9" class="edge">
<title>x2,y2&#45;&gt;x1,y3</title>
<path fill="none" stroke="black" d="M273.96,-97.52C285.74,-102.85 299.24,-108.97 311.77,-114.65"/>
<polygon fill="black" stroke="black" points="310.07,-117.72 320.63,-118.66 312.96,-111.35 310.07,-117.72"/>
<text xml:space="preserve" text-anchor="middle" x="297.99" y="-113.13" font-family="Times New Roman,serif" font-size="14.00">b</text>
</g>
<!-- x1,y3&#45;&gt;x1,y3 -->
<g id="edge11" class="edge">
<title>x1,y3:e&#45;&gt;x1,y3:e</title>
<path fill="none" stroke="black" d="M391.5,-133.9C400.71,-142.9 419.81,-142.9 419.81,-133.9 419.81,-127.5 410.16,-125.65 401.27,-128.35"/>
<polygon fill="black" stroke="black" points="399.78,-125.17 392.82,-133.15 403.24,-131.26 399.78,-125.17"/>
<text xml:space="preserve" text-anchor="middle" x="423.18" y="-128.85" font-family="Times New Roman,serif" font-size="14.00">b</text>
</g>
<!-- x2,y3 -->
<g id="node7" class="node">
<title>x2,y3</title>
<ellipse fill="none" stroke="black" cx="355.26" cy="-240.9" rx="31.9" ry="31.9"/>
<ellipse fill="none" stroke="black" cx="355.26" cy="-240.9" rx="35.9" ry="35.9"/>
<text xml:space="preserve" text-anchor="middle" x="355.26" y="-235.85" font-family="Times New Roman,serif" font-size="14.00">x2,y3</text>
</g>
<!-- x1,y3&#45;&gt;x2,y3 -->
<g id="edge10" class="edge">
<title>x1,y3&#45;&gt;x2,y3</title>
<path fill="none" stroke="black" d="M370.05,-167.08C372,-172.76 373.7,-178.67 374.76,-184.4 375.6,-188.87 375.57,-193.45 374.96,-197.99"/>
<polygon fill="black" stroke="black" points="371.59,-197.07 372.74,-207.6 378.4,-198.65 371.59,-197.07"/>
<text xml:space="preserve" text-anchor="middle" x="366.51" y="-182.35" font-family="Times New Roman,serif" font-size="14.00">a</text>
</g>
<!-- x2,y3&#45;&gt;x1,y3 -->
<g id="edge13" class="edge">
<title>x2,y3&#45;&gt;x1,y3</title>
<path fill="none" stroke="black" d="M355.26,-204.71C355.26,-197.22 355.26,-189.22 355.26,-181.39"/>
<polygon fill="black" stroke="black" points="358.76,-181.64 355.26,-171.64 351.76,-181.64 358.76,-181.64"/>
<text xml:space="preserve" text-anchor="middle" x="344.01" y="-182.35" font-family="Times New Roman,serif" font-size="14.00">a</text>
</g>
<!-- x2,y3&#45;&gt;x2,y3 -->
<g id="edge12" class="edge">
<title>x2,y3&#45;&gt;x2,y3</title>
<path fill="none" stroke="black" d="M344.53,-275.64C344.75,-286.37 348.33,-294.81 355.26,-294.81 359.49,-294.81 362.47,-291.67 364.2,-286.8"/>
<polygon fill="black" stroke="black" points="367.62,-287.56 365.75,-277.13 360.71,-286.45 367.62,-287.56"/>
<text xml:space="preserve" text-anchor="middle" x="355.26" y="-298.01" font-family="Times New Roman,serif" font-size="14.00">a</text>
</g>
</g>
</svg>