<?xml version="1.0" encoding="UTF-8" standalone="no"?>
<!DOCTYPE svg PUBLIC "-//W3C//DTD SVG 1.1//EN"
 "http://www.w3.org/Graphics/SVG/1.1/DTD/svg11.dtd">
<!-- Generated by graphviz version 13.1.2 (20250808.2320)
 -->
<!-- Pages: 1 -->
<svg width="299pt" height="528pt"
 viewBox="0.00 0.00 299.00 528.00" xmlns="http://www.w3.org/2000/svg" xmlns:xlink="http://www.w3.org/1999/xlink">
<g id="graph0" class="graph" transform="scale(1 1) rotate(0) translate(4 524.34)">
<polygon fill="white" stroke="none" points="-4,4 -4,-524.34 295.17,-524.34 295.17,4 -4,4"/>
<g id="node1" class="node">
<title></title>
</g>
<!-- start state -->
<g id="node2" class="node">
<title>start state</title>
<ellipse fill="none" stroke="black" cx="46.23" cy="-401.1" rx="46.23" ry="46.23"/>
<text xml:space="preserve" text-anchor="middle" x="46.23" y="-396.05" font-family="Times New Roman,serif" font-size="14.00">start state</text>
</g>
<!-- &#45;&gt;start state -->
<g id="edge1" class="edge">
<title>&#45;&gt;start state</title>
<path fill="none" stroke="black" d="M46.23,-484.5C46.23,-477.27 46.23,-468.35 46.23,-459.09"/>
<polygon fill="black" stroke="black" points="49.73,-459.21 46.23,-449.21 42.73,-459.21 49.73,-459.21"/>
</g>
<!-- fail state -->
<g id="node3" class="node">
<title>fail state</title>
<ellipse fill="none" stroke="black" cx="178.23" cy="-42.65" rx="42.65" ry="42.65"/>
<text xml:space="preserve" text-anchor="middle" x="178.23" y="-37.6" font-family="Times New Roman,serif" font-size="14.00">fail state</text>
</g>
<!-- start state&#45;&gt;fail state -->
<g id="edge3" class="edge">
<title>start state&#45;&gt;fail state</title>
<path fill="none" stroke="black" d="M46.88,-354.62C49.3,-300.37 58.71,-208.21 93.23,-137.8 104.06,-115.71 121.63,-94.97 137.99,-78.61"/>
<polygon fill="black" stroke="black" points="140.06,-81.47 144.8,-72 135.19,-76.45 140.06,-81.47"/>
<text xml:space="preserve" text-anchor="middle" x="67.59" y="-223.64" font-family="Times New Roman,serif" font-size="14.00">b</text>
</g>
<!-- 1a -->
<g id="node4" class="node">
<title>1a</title>
<ellipse fill="none" stroke="black" cx="146.23" cy="-401.1" rx="18" ry="18"/>
<text xml:space="preserve" text-anchor="middle" x="146.23" y="-396.05" font-family="Times New Roman,serif" font-size="14.00">a</text>
</g>
<!-- start state&#45;&gt;1a -->
<g id="edge2" class="edge">
<title>start state&#45;&gt;1a</title>
<path fill="none" stroke="black" d="M92.72,-401.1C100.79,-401.1 108.98,-401.1 116.45,-401.1"/>
<polygon fill="black" stroke="black" points="116.31,-404.6 126.31,-401.1 116.31,-397.6 116.31,-404.6"/>
<text xml:space="preserve" text-anchor="middle" x="110.35" y="-407.3" font-family="Times New Roman,serif" font-size="14.00">a</text>
</g>
<!-- fail state&#45;&gt;fail state -->
<g id="edge12" class="edge">
<title>fail state&#45;&gt;fail state</title>
<path fill="none" stroke="black" d="M219.34,-55.47C230.44,-54.8 238.88,-50.52 238.88,-42.65 238.88,-37.73 235.58,-34.22 230.4,-32.11"/>
<polygon fill="black" stroke="black" points="231.32,-28.72 220.82,-30.13 229.91,-35.58 231.32,-28.72"/>
<text xml:space="preserve" text-anchor="middle" x="247.13" y="-37.6" font-family="Times New Roman,serif" font-size="14.00">a,b</text>
</g>
<!-- 2a -->
<g id="node5" class="node">
<title>2a</title>
<ellipse fill="none" stroke="black" cx="219.23" cy="-401.1" rx="19.11" ry="19.11"/>
<text xml:space="preserve" text-anchor="middle" x="219.23" y="-396.05" font-family="Times New Roman,serif" font-size="14.00">aa</text>
</g>
<!-- 1a&#45;&gt;2a -->
<g id="edge4" class="edge">
<title>1a&#45;&gt;2a</title>
<path fill="none" stroke="black" d="M164.65,-401.1C171.86,-401.1 180.33,-401.1 188.41,-401.1"/>
<polygon fill="black" stroke="black" points="188.28,-404.6 198.28,-401.1 188.28,-397.6 188.28,-404.6"/>
<text xml:space="preserve" text-anchor="middle" x="182.18" y="-407.3" font-family="Times New Roman,serif" font-size="14.00">a</text>
</g>
<!-- 1a1b -->
<g id="node7" class="node">
<title>1a1b</title>
<ellipse fill="none" stroke="black" cx="126.23" cy="-170.12" rx="19.62" ry="19.62"/>
<ellipse fill="none" stroke="black" cx="126.23" cy="-170.12" rx="23.62" ry="23.62"/>
<text xml:space="preserve" text-anchor="middle" x="126.23" y="-165.07" font-family="Times New Roman,serif" font-size="14.00">ab</text>
</g>
<!-- 1a&#45;&gt;1a1b -->
<g id="edge5" class="edge">
<title>1a&#45;&gt;1a1b</title>
<path fill="none" stroke="black" d="M144.73,-382.89C141.44,-345.23 133.55,-254.9 129.21,-205.25"/>
<polygon fill="black" stroke="black" points="132.71,-205.01 128.35,-195.36 125.73,-205.62 132.71,-205.01"/>
<text xml:space="preserve" text-anchor="middle" x="140.94" y="-273.61" font-family="Times New Roman,serif" font-size="14.00">b</text>
</g>
<!-- 2a&#45;&gt;fail state -->
<g id="edge6" class="edge">
<title>2a&#45;&gt;fail state</title>
<path fill="none" stroke="black" d="M216.39,-381.76C213.4,-362.14 208.66,-330.1 205.23,-302.37 196.44,-231.33 188.19,-149.07 183.17,-96.72"/>
<polygon fill="black" stroke="black" points="186.67,-96.51 182.24,-86.89 179.7,-97.17 186.67,-96.51"/>
<text xml:space="preserve" text-anchor="middle" x="200.58" y="-223.64" font-family="Times New Roman,serif" font-size="14.00">a</text>
</g>
<!-- 2a1b -->
<g id="node6" class="node">
<title>2a1b</title>
<ellipse fill="none" stroke="black" cx="238.23" cy="-278.66" rx="23.71" ry="23.71"/>
<text xml:space="preserve" text-anchor="middle" x="238.23" y="-273.61" font-family="Times New Roman,serif" font-size="14.00">aab</text>
</g>
<!-- 2a&#45;&gt;2a1b -->
<g id="edge7" class="edge">
<title>2a&#45;&gt;2a1b</title>
<path fill="none" stroke="black" d="M222.12,-381.81C224.97,-363.73 229.4,-335.66 232.89,-313.51"/>
<polygon fill="black" stroke="black" points="236.33,-314.15 234.44,-303.73 229.42,-313.06 236.33,-314.15"/>
<text xml:space="preserve" text-anchor="middle" x="234.92" y="-323.57" font-family="Times New Roman,serif" font-size="14.00">b</text>
</g>
<!-- 2a1b&#45;&gt;fail state -->
<g id="edge8" class="edge">
<title>2a1b&#45;&gt;fail state</title>
<path fill="none" stroke="black" d="M251.73,-259.04C269.75,-231.74 297.4,-179.57 279.23,-137.8 267.74,-111.38 244.77,-89.01 223.64,-72.71"/>
<polygon fill="black" stroke="black" points="225.75,-69.93 215.63,-66.79 221.59,-75.55 225.75,-69.93"/>
<text xml:space="preserve" text-anchor="middle" x="288.17" y="-165.07" font-family="Times New Roman,serif" font-size="14.00">a</text>
</g>
<!-- 2a2b -->
<g id="node8" class="node">
<title>2a2b</title>
<ellipse fill="none" stroke="black" cx="238.23" cy="-170.12" rx="28.32" ry="28.32"/>
<ellipse fill="none" stroke="black" cx="238.23" cy="-170.12" rx="32.32" ry="32.32"/>
<text xml:space="preserve" text-anchor="middle" x="238.23" y="-165.07" font-family="Times New Roman,serif" font-size="14.00">aabb</text>
</g>
<!-- 2a1b&#45;&gt;2a2b -->
<g id="edge9" class="edge">
<title>2a1b&#45;&gt;2a2b</title>
<path fill="none" stroke="black" d="M238.23,-254.54C238.23,-242.68 238.23,-227.85 238.23,-214"/>
<polygon fill="black" stroke="black" points="241.73,-214.19 238.23,-204.19 234.73,-214.19 241.73,-214.19"/>
<text xml:space="preserve" text-anchor="middle" x="241.61" y="-223.64" font-family="Times New Roman,serif" font-size="14.00">b</text>
</g>
<!-- 1a1b&#45;&gt;fail state -->
<g id="edge10" class="edge">
<title>1a1b&#45;&gt;fail state</title>
<path fill="none" stroke="black" d="M132.55,-146.87C136.45,-133.96 141.82,-117.51 147.73,-103.3 149.42,-99.25 151.27,-95.1 153.2,-90.96"/>
<polygon fill="black" stroke="black" points="156.26,-92.67 157.46,-82.14 149.96,-89.62 156.26,-92.67"/>
<text xml:space="preserve" text-anchor="middle" x="155.98" y="-106.5" font-family="Times New Roman,serif" font-size="14.00">a,b</text>
</g>
<!-- 2a2b&#45;&gt;fail state -->
<g id="edge11" class="edge">
<title>2a2b&#45;&gt;fail state</title>
<path fill="none" stroke="black" d="M224.47,-140.34C217.53,-125.84 208.95,-107.87 201.06,-91.38"/>
<polygon fill="black" stroke="black" points="204.38,-90.22 196.91,-82.71 198.07,-93.24 204.38,-90.22"/>
<text xml:space="preserve" text-anchor="middle" x="221.86" y="-106.5" font-family="Times New Roman,serif" font-size="14.00">a,b</text>
</g>
</g>
</svg>