<?xml version="1.0" encoding="UTF-8" standalone="no"?>
<!DOCTYPE svg PUBLIC "-//W3C//DTD SVG 1.1//EN"
 "http://www.w3.org/Graphics/SVG/1.1/DTD/svg11.dtd">
<!-- Generated by graphviz version 13.1.2 (20250808.2320)
 -->
<!-- Pages: 1 -->
<svg width="489pt" height="519pt"
 viewBox="0.00 0.00 489.00 519.00" xmlns="http://www.w3.org/2000/svg" xmlns:xlink="http://www.w3.org/1999/xlink">
<g id="graph0" class="graph" transform="scale(1 1) rotate(0) translate(4 515.39)">
<polygon fill="white" stroke="none" points="-4,4 -4,-515.39 484.72,-515.39 484.72,4 -4,4"/>
<!-- &empty; -->
<g id="node1" class="node">
<title>&empty;</title>
<ellipse fill="none" stroke="black" cx="302.85" cy="-98.12" rx="21.15" ry="21.15"/>
<text xml:space="preserve" text-anchor="middle" x="302.85" y="-91.94" font-family="Times New Roman,serif" font-size="14.00">∅</text>
</g>
<!-- &empty;&#45;&gt;&empty; -->
<g id="edge1" class="edge">
<title>&empty;&#45;&gt;&empty;</title>
<path fill="none" stroke="black" d="M296.06,-118.66C295.22,-128.54 297.48,-137.26 302.85,-137.26 305.95,-137.26 308.02,-134.35 309.04,-129.98"/>
<polygon fill="black" stroke="black" points="312.53,-130.34 309.56,-120.17 305.54,-129.97 312.53,-130.34"/>
<text xml:space="preserve" text-anchor="middle" x="302.85" y="-140.46" font-family="Times New Roman,serif" font-size="14.00">a</text>
</g>
<!-- &empty;&#45;&gt;&empty; -->
<g id="edge2" class="edge">
<title>&empty;&#45;&gt;&empty;</title>
<path fill="none" stroke="black" d="M291.88,-116.55C285.63,-134.93 289.29,-155.26 302.85,-155.26 313.76,-155.26 318.26,-142.1 316.34,-127.38"/>
<polygon fill="black" stroke="black" points="319.84,-126.97 314.16,-118.02 313.02,-128.56 319.84,-126.97"/>
<text xml:space="preserve" text-anchor="middle" x="302.85" y="-158.46" font-family="Times New Roman,serif" font-size="14.00">b</text>
</g>
<!-- {q0} -->
<g id="node2" class="node">
<title>{q0}</title>
<ellipse fill="none" stroke="black" cx="41.12" cy="-265.12" rx="29.34" ry="29.34"/>
<text xml:space="preserve" text-anchor="middle" x="41.12" y="-260.07" font-family="Times New Roman,serif" font-size="14.00">{q0}</text>
</g>
<!-- {q0}&#45;&gt;{q0} -->
<g id="edge4" class="edge">
<title>{q0}&#45;&gt;{q0}</title>
<path fill="none" stroke="black" d="M29.47,-292.36C28.81,-303.29 32.69,-312.46 41.12,-312.46 46.38,-312.46 49.87,-308.88 51.59,-303.52"/>
<polygon fill="black" stroke="black" points="55.04,-304.18 52.6,-293.87 48.07,-303.44 55.04,-304.18"/>
<text xml:space="preserve" text-anchor="middle" x="41.12" y="-315.66" font-family="Times New Roman,serif" font-size="14.00">b</text>
</g>
<!-- {q0,q1} -->
<g id="node5" class="node">
<title>{q0,q1}</title>
<ellipse fill="none" stroke="black" cx="166.1" cy="-336.12" rx="41.12" ry="41.12"/>
<text xml:space="preserve" text-anchor="middle" x="166.1" y="-331.07" font-family="Times New Roman,serif" font-size="14.00">{q0,q1}</text>
</g>
<!-- {q0}&#45;&gt;{q0,q1} -->
<g id="edge3" class="edge">
<title>{q0}&#45;&gt;{q0,q1}</title>
<path fill="none" stroke="black" d="M67,-279.48C82.28,-288.3 102.3,-299.86 120.27,-310.23"/>
<polygon fill="black" stroke="black" points="118.27,-313.12 128.68,-315.09 121.77,-307.06 118.27,-313.12"/>
<text xml:space="preserve" text-anchor="middle" x="103.61" y="-303.82" font-family="Times New Roman,serif" font-size="14.00">a</text>
</g>
<!-- {q1} -->
<g id="node3" class="node">
<title>{q1}</title>
<ellipse fill="none" stroke="black" cx="41.12" cy="-137.12" rx="29.34" ry="29.34"/>
<text xml:space="preserve" text-anchor="middle" x="41.12" y="-132.07" font-family="Times New Roman,serif" font-size="14.00">{q1}</text>
</g>
<!-- {q2} -->
<g id="node4" class="node">
<title>{q2}</title>
<ellipse fill="none" stroke="black" cx="166.1" cy="-81.12" rx="29.34" ry="29.34"/>
<text xml:space="preserve" text-anchor="middle" x="166.1" y="-76.07" font-family="Times New Roman,serif" font-size="14.00">{q2}</text>
</g>
<!-- {q1}&#45;&gt;{q2} -->
<g id="edge5" class="edge">
<title>{q1}&#45;&gt;{q2}</title>
<path fill="none" stroke="black" d="M70.69,-133.57C82.3,-131.46 95.62,-128.18 106.98,-123.12 116.4,-118.92 125.81,-113.04 134.22,-107.01"/>
<polygon fill="black" stroke="black" points="136.16,-109.93 142.05,-101.13 131.95,-104.34 136.16,-109.93"/>
<text xml:space="preserve" text-anchor="middle" x="103.61" y="-129.01" font-family="Times New Roman,serif" font-size="14.00">a</text>
</g>
<!-- {q1}&#45;&gt;{q2} -->
<g id="edge6" class="edge">
<title>{q1}&#45;&gt;{q2}</title>
<path fill="none" stroke="black" d="M66.08,-121.3C76.33,-114.96 88.59,-107.92 100.23,-102.62 108.58,-98.81 117.8,-95.34 126.61,-92.35"/>
<polygon fill="black" stroke="black" points="127.58,-95.72 136.01,-89.3 125.42,-89.06 127.58,-95.72"/>
<text xml:space="preserve" text-anchor="middle" x="103.61" y="-105.82" font-family="Times New Roman,serif" font-size="14.00">b</text>
</g>
<!-- {q2}&#45;&gt;&empty; -->
<g id="edge7" class="edge">
<title>{q2}&#45;&gt;&empty;</title>
<path fill="none" stroke="black" d="M194.63,-89.58C204.21,-92.17 215.1,-94.7 225.21,-96.12 239.79,-98.16 256.08,-98.81 269.87,-98.89"/>
<polygon fill="black" stroke="black" points="269.76,-102.39 279.74,-98.84 269.72,-95.39 269.76,-102.39"/>
<text xml:space="preserve" text-anchor="middle" x="228.59" y="-100.09" font-family="Times New Roman,serif" font-size="14.00">a</text>
</g>
<!-- {q2}&#45;&gt;&empty; -->
<g id="edge8" class="edge">
<title>{q2}&#45;&gt;&empty;</title>
<path fill="none" stroke="black" d="M195.3,-75.79C206.72,-74.39 220.01,-73.74 231.96,-75.62 245.55,-77.75 260.11,-82.08 272.4,-86.39"/>
<polygon fill="black" stroke="black" points="270.94,-89.58 281.54,-89.74 273.36,-83.01 270.94,-89.58"/>
<text xml:space="preserve" text-anchor="middle" x="228.59" y="-78.82" font-family="Times New Roman,serif" font-size="14.00">b</text>
</g>
<!-- {q0,q2} -->
<g id="node6" class="node">
<title>{q0,q2}</title>
<ellipse fill="none" stroke="black" cx="439.6" cy="-324.12" rx="41.12" ry="41.12"/>
<text xml:space="preserve" text-anchor="middle" x="439.6" y="-319.07" font-family="Times New Roman,serif" font-size="14.00">{q0,q2}</text>
</g>
<!-- {q0,q1}&#45;&gt;{q0,q2} -->
<g id="edge10" class="edge">
<title>{q0,q1}&#45;&gt;{q0,q2}</title>
<path fill="none" stroke="black" d="M178.23,-375.75C190.02,-409.39 212.26,-455.54 249.96,-477.12 290.76,-500.46 315.35,-501.17 355.73,-477.12 392.66,-455.12 414.14,-410.31 425.93,-374.84"/>
<polygon fill="black" stroke="black" points="429.17,-376.21 428.83,-365.62 422.5,-374.11 429.17,-376.21"/>
<text xml:space="preserve" text-anchor="middle" x="302.85" y="-498.09" font-family="Times New Roman,serif" font-size="14.00">b</text>
</g>
<!-- {q0,q1,q2} -->
<g id="node8" class="node">
<title>{q0,q1,q2}</title>
<ellipse fill="none" stroke="black" cx="302.85" cy="-381.12" rx="52.89" ry="52.89"/>
<text xml:space="preserve" text-anchor="middle" x="302.85" y="-376.07" font-family="Times New Roman,serif" font-size="14.00">{q0,q1,q2}</text>
</g>
<!-- {q0,q1}&#45;&gt;{q0,q1,q2} -->
<g id="edge9" class="edge">
<title>{q0,q1}&#45;&gt;{q0,q1,q2}</title>
<path fill="none" stroke="black" d="M205.35,-348.89C216.66,-352.67 229.33,-356.9 241.68,-361.02"/>
<polygon fill="black" stroke="black" points="240.37,-364.28 250.96,-364.12 242.59,-357.64 240.37,-364.28"/>
<text xml:space="preserve" text-anchor="middle" x="228.59" y="-360.47" font-family="Times New Roman,serif" font-size="14.00">a</text>
</g>
<!-- {q0,q2}&#45;&gt;{q0} -->
<g id="edge12" class="edge">
<title>{q0,q2}&#45;&gt;{q0}</title>
<path fill="none" stroke="black" d="M401.73,-307.81C387.61,-302.24 371.18,-296.55 355.73,-293.12 258.94,-271.58 141.84,-266.51 81.82,-265.38"/>
<polygon fill="black" stroke="black" points="82.17,-261.88 72.12,-265.22 82.06,-268.88 82.17,-261.88"/>
<text xml:space="preserve" text-anchor="middle" x="228.59" y="-277.19" font-family="Times New Roman,serif" font-size="14.00">b</text>
</g>
<!-- {q0,q2}&#45;&gt;{q0,q1} -->
<g id="edge11" class="edge">
<title>{q0,q2}&#45;&gt;{q0,q1}</title>
<path fill="none" stroke="black" d="M400.21,-311.99C386.35,-308.19 370.48,-304.5 355.73,-302.62 309.1,-296.66 296.11,-293.64 249.96,-302.62 237.83,-304.97 225.23,-309.11 213.63,-313.68"/>
<polygon fill="black" stroke="black" points="212.58,-310.32 204.69,-317.39 215.27,-316.79 212.58,-310.32"/>
<text xml:space="preserve" text-anchor="middle" x="302.85" y="-305.82" font-family="Times New Roman,serif" font-size="14.00">a</text>
</g>
<!-- {q1,q2} -->
<g id="node7" class="node">
<title>{q1,q2}</title>
<ellipse fill="none" stroke="black" cx="41.12" cy="-41.12" rx="41.12" ry="41.12"/>
<text xml:space="preserve" text-anchor="middle" x="41.12" y="-36.07" font-family="Times New Roman,serif" font-size="14.00">{q1,q2}</text>
</g>
<!-- {q1,q2}&#45;&gt;{q2} -->
<g id="edge13" class="edge">
<title>{q1,q2}&#45;&gt;{q2}</title>
<path fill="none" stroke="black" d="M80.69,-53.66C95.51,-58.48 112.4,-63.98 127.16,-68.78"/>
<polygon fill="black" stroke="black" points="125.93,-72.06 136.52,-71.82 128.09,-65.4 125.93,-72.06"/>
<text xml:space="preserve" text-anchor="middle" x="103.61" y="-64.32" font-family="Times New Roman,serif" font-size="14.00">a</text>
</g>
<!-- {q1,q2}&#45;&gt;{q2} -->
<g id="edge14" class="edge">
<title>{q1,q2}&#45;&gt;{q2}</title>
<path fill="none" stroke="black" d="M82.48,-36.95C90.73,-37.16 99.24,-38.19 106.98,-40.62 116.78,-43.69 126.38,-49.08 134.86,-54.93"/>
<polygon fill="black" stroke="black" points="132.57,-57.6 142.69,-60.75 136.75,-51.98 132.57,-57.6"/>
<text xml:space="preserve" text-anchor="middle" x="103.61" y="-43.82" font-family="Times New Roman,serif" font-size="14.00">b</text>
</g>
<!-- {q0,q1,q2}&#45;&gt;{q0,q2} -->
<g id="edge16" class="edge">
<title>{q0,q1,q2}&#45;&gt;{q0,q2}</title>
<path fill="none" stroke="black" d="M352.12,-360.7C364.74,-355.36 378.34,-349.6 390.94,-344.28"/>
<polygon fill="black" stroke="black" points="392,-347.63 399.84,-340.51 389.27,-341.18 392,-347.63"/>
<text xml:space="preserve" text-anchor="middle" x="377.11" y="-354.11" font-family="Times New Roman,serif" font-size="14.00">b</text>
</g>
<!-- {q0,q1,q2}&#45;&gt;{q0,q1,q2} -->
<g id="edge15" class="edge">
<title>{q0,q1,q2}&#45;&gt;{q0,q1,q2}</title>
<path fill="none" stroke="black" d="M289.34,-432.73C290.66,-443.9 295.16,-452 302.85,-452 307.65,-452 311.21,-448.84 313.53,-443.74"/>
<polygon fill="black" stroke="black" points="316.88,-444.75 315.98,-434.19 310.1,-443.01 316.88,-444.75"/>
<text xml:space="preserve" text-anchor="middle" x="302.85" y="-455.2" font-family="Times New Roman,serif" font-size="14.00">a</text>
</g>
</g>
</svg>