<?xml version="1.0" encoding="UTF-8" standalone="no"?>
<!DOCTYPE svg PUBLIC "-//W3C//DTD SVG 1.1//EN"
 "http://www.w3.org/Graphics/SVG/1.1/DTD/svg11.dtd">
<!-- Generated by graphviz version 13.1.2 (20250808.2320)
 -->
<!-- Pages: 1 -->
<svg width="337pt" height="135pt"
 viewBox="0.00 0.00 337.00 135.00" xmlns="http://www.w3.org/2000/svg" xmlns:xlink="http://www.w3.org/1999/xlink">
<g id="graph0" class="graph" transform="scale(1 1) rotate(0) translate(4 131.38)">
<polygon fill="white" stroke="none" points="-4,4 -4,-131.38 333.27,-131.38 333.27,4 -4,4"/>
<g id="node1" class="node">
<title></title>
</g>
<!-- start state -->
<g id="node2" class="node">
<title>start state</title>
<ellipse fill="none" stroke="black" cx="141.23" cy="-50.23" rx="46.23" ry="46.23"/>
<ellipse fill="none" stroke="black" cx="141.23" cy="-50.23" rx="50.23" ry="50.23"/>
<text xml:space="preserve" text-anchor="middle" x="141.23" y="-45.18" font-family="Times New Roman,serif" font-size="14.00">start state</text>
</g>
<!-- &#45;&gt;start state -->
<g id="edge1" class="edge">
<title>&#45;&gt;start state</title>
<path fill="none" stroke="black" d="M53.75,-50.23C61.48,-50.23 70.32,-50.23 79.32,-50.23"/>
<polygon fill="black" stroke="black" points="79.23,-53.73 89.23,-50.23 79.23,-46.73 79.23,-53.73"/>
</g>
<!-- fail state -->
<g id="node3" class="node">
<title>fail state</title>
<ellipse fill="none" stroke="black" cx="286.62" cy="-50.23" rx="42.65" ry="42.65"/>
<text xml:space="preserve" text-anchor="middle" x="286.62" y="-45.18" font-family="Times New Roman,serif" font-size="14.00">fail state</text>
</g>
<!-- start state&#45;&gt;fail state -->
<g id="edge2" class="edge">
<title>start state&#45;&gt;fail state</title>
<path fill="none" stroke="black" d="M191.58,-50.23C204.74,-50.23 219.01,-50.23 232.37,-50.23"/>
<polygon fill="black" stroke="black" points="232.3,-53.73 242.3,-50.23 232.3,-46.73 232.3,-53.73"/>
<text xml:space="preserve" text-anchor="middle" x="217.72" y="-53.43" font-family="Times New Roman,serif" font-size="14.00">a,b</text>
</g>
<!-- fail state&#45;&gt;fail state -->
<g id="edge3" class="edge">
<title>fail state&#45;&gt;fail state</title>
<path fill="none" stroke="black" d="M273.79,-91.34C274.47,-102.44 278.74,-110.88 286.62,-110.88 291.54,-110.88 295.05,-107.58 297.16,-102.4"/>
<polygon fill="black" stroke="black" points="300.55,-103.32 299.14,-92.82 293.69,-101.91 300.55,-103.32"/>
<text xml:space="preserve" text-anchor="middle" x="286.62" y="-114.08" font-family="Times New Roman,serif" font-size="14.00">a,b</text>
</g>
</g>
</svg>