<?xml version="1.0" encoding="UTF-8" standalone="no"?>
<!DOCTYPE svg PUBLIC "-//W3C//DTD SVG 1.1//EN"
 "http://www.w3.org/Graphics/SVG/1.1/DTD/svg11.dtd">
<!-- Generated by graphviz version 13.1.2 (20250808.2320)
 -->
<!-- Pages: 1 -->
<svg width="399pt" height="110pt"
 viewBox="0.00 0.00 399.00 110.00" xmlns="http://www.w3.org/2000/svg" xmlns:xlink="http://www.w3.org/1999/xlink">
<g id="graph0" class="graph" transform="scale(1 1) rotate(0) translate(4 105.5)">
<polygon fill="white" stroke="none" points="-4,4 -4,-105.5 394.75,-105.5 394.75,4 -4,4"/>
<g id="node1" class="node">
<title></title>
</g>
<!-- 1 -->
<g id="node2" class="node">
<title>1</title>
<ellipse fill="none" stroke="black" cx="109" cy="-23" rx="18" ry="18"/>
<text xml:space="preserve" text-anchor="middle" x="109" y="-17.95" font-family="Times New Roman,serif" font-size="14.00">1</text>
</g>
<!-- &#45;&gt;1 -->
<g id="edge1" class="edge">
<title>&#45;&gt;1</title>
<path fill="none" stroke="black" d="M53.75,-23C61.85,-23 70.85,-23 79.16,-23"/>
<polygon fill="black" stroke="black" points="79.12,-26.5 89.12,-23 79.12,-19.5 79.12,-26.5"/>
</g>
<!-- 2 -->
<g id="node3" class="node">
<title>2</title>
<ellipse fill="none" stroke="black" cx="202.75" cy="-60" rx="18" ry="18"/>
<text xml:space="preserve" text-anchor="middle" x="202.75" y="-54.95" font-family="Times New Roman,serif" font-size="14.00">2</text>
</g>
<!-- 1&#45;&gt;2 -->
<g id="edge2" class="edge">
<title>1&#45;&gt;2</title>
<path fill="none" stroke="black" d="M125.98,-29.44C139.58,-34.93 159.39,-42.92 175.34,-49.35"/>
<polygon fill="black" stroke="black" points="173.66,-52.44 184.24,-52.94 176.27,-45.95 173.66,-52.44"/>
<text xml:space="preserve" text-anchor="middle" x="155.88" y="-48.01" font-family="Times New Roman,serif" font-size="14.00">H,T</text>
</g>
<!-- 3 -->
<g id="node4" class="node">
<title>3</title>
<ellipse fill="none" stroke="black" cx="284.5" cy="-18" rx="18" ry="18"/>
<text xml:space="preserve" text-anchor="middle" x="284.5" y="-12.95" font-family="Times New Roman,serif" font-size="14.00">3</text>
</g>
<!-- 2&#45;&gt;3 -->
<g id="edge3" class="edge">
<title>2&#45;&gt;3</title>
<path fill="none" stroke="black" d="M219.08,-51.89C225.2,-48.65 232.3,-44.9 238.75,-41.5 245.02,-38.2 251.78,-34.64 258.1,-31.32"/>
<polygon fill="black" stroke="black" points="259.6,-34.49 266.83,-26.74 256.35,-28.29 259.6,-34.49"/>
<text xml:space="preserve" text-anchor="middle" x="243.62" y="-44.7" font-family="Times New Roman,serif" font-size="14.00">H</text>
</g>
<!-- 4 -->
<g id="node5" class="node">
<title>4</title>
<ellipse fill="none" stroke="black" cx="368.75" cy="-45" rx="18" ry="18"/>
<ellipse fill="none" stroke="black" cx="368.75" cy="-45" rx="22" ry="22"/>
<text xml:space="preserve" text-anchor="middle" x="368.75" y="-39.95" font-family="Times New Roman,serif" font-size="14.00">4</text>
</g>
<!-- 2&#45;&gt;4 -->
<g id="edge4" class="edge">
<title>2&#45;&gt;4</title>
<path fill="none" stroke="black" d="M221.21,-59.57C245.43,-58.81 290.57,-56.84 328.75,-52 330.95,-51.72 333.22,-51.4 335.49,-51.06"/>
<polygon fill="black" stroke="black" points="335.98,-54.52 345.27,-49.43 334.83,-47.62 335.98,-54.52"/>
<text xml:space="preserve" text-anchor="middle" x="284.5" y="-60.62" font-family="Times New Roman,serif" font-size="14.00">T</text>
</g>
<!-- 3&#45;&gt;1 -->
<g id="edge5" class="edge">
<title>3&#45;&gt;1</title>
<path fill="none" stroke="black" d="M266.19,-17.48C253.59,-17.12 236.11,-16.68 220.75,-16.5 204.75,-16.31 200.73,-15.81 184.75,-16.5 169.45,-17.16 152.44,-18.59 138.51,-19.94"/>
<polygon fill="black" stroke="black" points="138.3,-16.44 128.7,-20.93 139,-23.4 138.3,-16.44"/>
<text xml:space="preserve" text-anchor="middle" x="202.75" y="-19.7" font-family="Times New Roman,serif" font-size="14.00">H</text>
</g>
<!-- 3&#45;&gt;4 -->
<g id="edge6" class="edge">
<title>3&#45;&gt;4</title>
<path fill="none" stroke="black" d="M302.14,-23.46C312.03,-26.71 324.89,-30.93 336.6,-34.78"/>
<polygon fill="black" stroke="black" points="335.31,-38.04 345.9,-37.83 337.5,-31.38 335.31,-38.04"/>
<text xml:space="preserve" text-anchor="middle" x="324.62" y="-34.7" font-family="Times New Roman,serif" font-size="14.00">T</text>
</g>
<!-- 4&#45;&gt;4 -->
<g id="edge7" class="edge">
<title>4&#45;&gt;4</title>
<path fill="none" stroke="black" d="M360.68,-65.99C359.68,-76.09 362.37,-85 368.75,-85 372.54,-85 375.02,-81.86 376.21,-77.19"/>
<polygon fill="black" stroke="black" points="379.69,-77.68 376.74,-67.5 372.7,-77.3 379.69,-77.68"/>
<text xml:space="preserve" text-anchor="middle" x="368.75" y="-88.2" font-family="Times New Roman,serif" font-size="14.00">H,T</text>
</g>
</g>
</svg>