<?xml version="1.0" encoding="UTF-8" standalone="no"?>
<!DOCTYPE svg PUBLIC "-//W3C//DTD SVG 1.1//EN"
 "http://www.w3.org/Graphics/SVG/1.1/DTD/svg11.dtd">
<!-- Generated by graphviz version 13.1.2 (20250808.2320)
 -->
<!-- Pages: 1 -->
<svg width="529pt" height="383pt"
 viewBox="0.00 0.00 529.00 383.00" xmlns="http://www.w3.org/2000/svg" xmlns:xlink="http://www.w3.org/1999/xlink">
<g id="graph0" class="graph" transform="scale(1 1) rotate(0) translate(4 378.5)">
<polygon fill="white" stroke="none" points="-4,4 -4,-378.5 525,-378.5 525,4 -4,4"/>
<g id="node1" class="node">
<title></title>
</g>
<!-- s0 -->
<g id="node2" class="node">
<title>s0</title>
<ellipse fill="none" stroke="black" cx="27" cy="-283.5" rx="18" ry="18"/>
</g>
<!-- &#45;&gt;s0 -->
<g id="edge1" class="edge">
<title>&#45;&gt;s0</title>
<path fill="none" stroke="black" d="M27,-338.67C27,-331.06 27,-321.85 27,-313.2"/>
<polygon fill="black" stroke="black" points="30.5,-313.46 27,-303.46 23.5,-313.46 30.5,-313.46"/>
</g>
<!-- s1 -->
<g id="node3" class="node">
<title>s1</title>
<ellipse fill="none" stroke="black" cx="99" cy="-283.5" rx="18" ry="18"/>
</g>
<!-- s0&#45;&gt;s1 -->
<g id="edge2" class="edge">
<title>s0&#45;&gt;s1</title>
<path fill="none" stroke="black" d="M45.17,-283.5C52.45,-283.5 61.02,-283.5 69.17,-283.5"/>
<polygon fill="black" stroke="black" points="69.07,-287 79.07,-283.5 69.07,-280 69.07,-287"/>
<text xml:space="preserve" text-anchor="start" x="57" y="-290.7" font-family="Times New Roman,serif" font-size="14.00">c</text>
<text xml:space="preserve" text-anchor="start" x="63" y="-290.7" font-family="Times New Roman,serif" baseline-shift="sub" font-size="14.00">1</text>
</g>
<!-- ellipsis1 -->
<g id="node4" class="node">
<title>ellipsis1</title>
<text xml:space="preserve" text-anchor="middle" x="180" y="-278.45" font-family="Times New Roman,serif" font-size="14.00">...</text>
</g>
<!-- s1&#45;&gt;ellipsis1 -->
<g id="edge3" class="edge">
<title>s1&#45;&gt;ellipsis1</title>
<path fill="none" stroke="black" d="M117.38,-283.5C124.63,-283.5 133.25,-283.5 141.74,-283.5"/>
<polygon fill="black" stroke="black" points="141.57,-287 151.57,-283.5 141.57,-280 141.57,-287"/>
<text xml:space="preserve" text-anchor="start" x="129" y="-290.7" font-family="Times New Roman,serif" font-size="14.00">c</text>
<text xml:space="preserve" text-anchor="start" x="135" y="-290.7" font-family="Times New Roman,serif" baseline-shift="sub" font-size="14.00">2</text>
</g>
<!-- sk -->
<g id="node5" class="node">
<title>sk</title>
<ellipse fill="none" stroke="black" cx="265" cy="-283.5" rx="18" ry="18"/>
</g>
<!-- ellipsis1&#45;&gt;sk -->
<g id="edge4" class="edge">
<title>ellipsis1&#45;&gt;sk</title>
<path fill="none" stroke="black" d="M206.89,-283.5C215.89,-283.5 225.97,-283.5 235.17,-283.5"/>
<polygon fill="black" stroke="black" points="235.1,-287 245.1,-283.5 235.1,-280 235.1,-287"/>
<text xml:space="preserve" text-anchor="start" x="216.12" y="-290.7" font-family="Times New Roman,serif" font-size="14.00">c</text>
<text xml:space="preserve" text-anchor="start" x="222.12" y="-290.7" font-family="Times New Roman,serif" baseline-shift="sub" font-size="14.00">k&#45;1</text>
</g>
<!-- sl -->
<g id="node6" class="node">
<title>sl</title>
<ellipse fill="none" stroke="black" cx="337" cy="-283.5" rx="18" ry="18"/>
</g>
<!-- sk&#45;&gt;sl -->
<g id="edge11" class="edge">
<title>sk&#45;&gt;sl</title>
<path fill="none" stroke="black" d="M283.17,-283.5C290.45,-283.5 299.02,-283.5 307.17,-283.5"/>
<polygon fill="black" stroke="black" points="307.07,-287 317.07,-283.5 307.07,-280 307.07,-287"/>
<text xml:space="preserve" text-anchor="start" x="296.5" y="-290.7" font-family="Times New Roman,serif" font-size="14.00">c</text>
<text xml:space="preserve" text-anchor="start" x="302.5" y="-290.7" font-family="Times New Roman,serif" baseline-shift="sub" font-size="14.00">l</text>
</g>
<!-- sk+1 -->
<g id="node9" class="node">
<title>sk+1</title>
<ellipse fill="none" stroke="black" cx="236" cy="-195" rx="18" ry="18"/>
</g>
<!-- sk&#45;&gt;sk+1 -->
<g id="edge5" class="edge">
<title>sk&#45;&gt;sk+1</title>
<path fill="none" stroke="black" d="M259.55,-266.23C255.48,-254.1 249.84,-237.27 245.09,-223.12"/>
<polygon fill="black" stroke="black" points="248.51,-222.29 242.01,-213.93 241.87,-224.52 248.51,-222.29"/>
<text xml:space="preserve" text-anchor="start" x="253.1" y="-235.2" font-family="Times New Roman,serif" font-size="14.00">c</text>
<text xml:space="preserve" text-anchor="start" x="259.1" y="-235.2" font-family="Times New Roman,serif" baseline-shift="sub" font-size="14.00">k</text>
</g>
<!-- ellipsis3 -->
<g id="node7" class="node">
<title>ellipsis3</title>
<text xml:space="preserve" text-anchor="middle" x="422" y="-278.45" font-family="Times New Roman,serif" font-size="14.00">...</text>
</g>
<!-- sl&#45;&gt;ellipsis3 -->
<g id="edge12" class="edge">
<title>sl&#45;&gt;ellipsis3</title>
<path fill="none" stroke="black" d="M355.44,-283.5C363.8,-283.5 374,-283.5 383.88,-283.5"/>
<polygon fill="black" stroke="black" points="383.69,-287 393.69,-283.5 383.69,-280 383.69,-287"/>
<text xml:space="preserve" text-anchor="start" x="364.12" y="-290.7" font-family="Times New Roman,serif" font-size="14.00">c</text>
<text xml:space="preserve" text-anchor="start" x="370.12" y="-290.7" font-family="Times New Roman,serif" baseline-shift="sub" font-size="14.00">l+1</text>
</g>
<!-- sN -->
<g id="node8" class="node">
<title>sN</title>
<ellipse fill="none" stroke="black" cx="503" cy="-283.5" rx="18" ry="18"/>
</g>
<!-- ellipsis3&#45;&gt;sN -->
<g id="edge13" class="edge">
<title>ellipsis3&#45;&gt;sN</title>
<path fill="none" stroke="black" d="M448.97,-283.5C456.73,-283.5 465.25,-283.5 473.17,-283.5"/>
<polygon fill="black" stroke="black" points="473.06,-287 483.06,-283.5 473.06,-280 473.06,-287"/>
<text xml:space="preserve" text-anchor="start" x="459.88" y="-290.7" font-family="Times New Roman,serif" font-size="14.00">c</text>
<text xml:space="preserve" text-anchor="start" x="465.88" y="-290.7" font-family="Times New Roman,serif" baseline-shift="sub" font-size="14.00">N</text>
</g>
<!-- sk+2 -->
<g id="node11" class="node">
<title>sk+2</title>
<ellipse fill="none" stroke="black" cx="236" cy="-106.5" rx="18" ry="18"/>
</g>
<!-- sk+1&#45;&gt;sk+2 -->
<g id="edge6" class="edge">
<title>sk+1&#45;&gt;sk+2</title>
<path fill="none" stroke="black" d="M236,-176.91C236,-165.26 236,-149.55 236,-136.02"/>
<polygon fill="black" stroke="black" points="239.5,-136.36 236,-126.36 232.5,-136.36 239.5,-136.36"/>
<text xml:space="preserve" text-anchor="start" x="236" y="-146.7" font-family="Times New Roman,serif" font-size="14.00">c</text>
<text xml:space="preserve" text-anchor="start" x="242" y="-146.7" font-family="Times New Roman,serif" baseline-shift="sub" font-size="14.00">k+1</text>
</g>
<!-- sl&#45;1 -->
<g id="node10" class="node">
<title>sl&#45;1</title>
<ellipse fill="none" stroke="black" cx="290" cy="-195" rx="18" ry="18"/>
</g>
<!-- sl&#45;1&#45;&gt;sk -->
<g id="edge10" class="edge">
<title>sl&#45;1&#45;&gt;sk</title>
<path fill="none" stroke="black" d="M285.19,-212.63C281.74,-224.58 277,-240.98 272.98,-254.88"/>
<polygon fill="black" stroke="black" points="269.65,-253.79 270.24,-264.37 276.38,-255.73 269.65,-253.79"/>
<text xml:space="preserve" text-anchor="start" x="279.74" y="-235.2" font-family="Times New Roman,serif" font-size="14.00">c</text>
<text xml:space="preserve" text-anchor="start" x="285.74" y="-235.2" font-family="Times New Roman,serif" baseline-shift="sub" font-size="14.00">l&#45;1</text>
</g>
<!-- ellipsis2 -->
<g id="node13" class="node">
<title>ellipsis2</title>
<text xml:space="preserve" text-anchor="middle" x="263" y="-12.95" font-family="Times New Roman,serif" font-size="14.00">...</text>
</g>
<!-- sk+2&#45;&gt;ellipsis2 -->
<g id="edge7" class="edge">
<title>sk+2&#45;&gt;ellipsis2</title>
<path fill="none" stroke="black" d="M235.82,-88.39C236.18,-78.17 237.48,-65.06 241.25,-54 242.23,-51.12 243.49,-48.22 244.91,-45.4"/>
<polygon fill="black" stroke="black" points="247.8,-47.39 249.75,-36.97 241.73,-43.9 247.8,-47.39"/>
<text xml:space="preserve" text-anchor="start" x="241.25" y="-58.2" font-family="Times New Roman,serif" font-size="14.00">c</text>
<text xml:space="preserve" text-anchor="start" x="247.25" y="-58.2" font-family="Times New Roman,serif" baseline-shift="sub" font-size="14.00">k+2</text>
</g>
<!-- sl&#45;2 -->
<g id="node12" class="node">
<title>sl&#45;2</title>
<ellipse fill="none" stroke="black" cx="290" cy="-106.5" rx="18" ry="18"/>
</g>
<!-- sl&#45;2&#45;&gt;sl&#45;1 -->
<g id="edge9" class="edge">
<title>sl&#45;2&#45;&gt;sl&#45;1</title>
<path fill="none" stroke="black" d="M290,-124.85C290,-136.56 290,-152.29 290,-165.78"/>
<polygon fill="black" stroke="black" points="286.5,-165.4 290,-175.4 293.5,-165.4 286.5,-165.4"/>
<text xml:space="preserve" text-anchor="start" x="290" y="-146.7" font-family="Times New Roman,serif" font-size="14.00">c</text>
<text xml:space="preserve" text-anchor="start" x="296" y="-146.7" font-family="Times New Roman,serif" baseline-shift="sub" font-size="14.00">l&#45;2</text>
</g>
<!-- ellipsis2&#45;&gt;sl&#45;2 -->
<g id="edge8" class="edge">
<title>ellipsis2&#45;&gt;sl&#45;2</title>
<path fill="none" stroke="black" d="M268.28,-35.92C272.01,-47.87 277.09,-64.15 281.4,-77.95"/>
<polygon fill="black" stroke="black" points="278.02,-78.87 284.34,-87.38 284.7,-76.79 278.02,-78.87"/>
<text xml:space="preserve" text-anchor="start" x="278.92" y="-58.2" font-family="Times New Roman,serif" font-size="14.00">c</text>
<text xml:space="preserve" text-anchor="start" x="284.92" y="-58.2" font-family="Times New Roman,serif" baseline-shift="sub" font-size="14.00">l&#45;3</text>
</g>
</g>
</svg>