<?xml version="1.0" encoding="UTF-8" standalone="no"?>
<!DOCTYPE svg PUBLIC "-//W3C//DTD SVG 1.1//EN"
 "http://www.w3.org/Graphics/SVG/1.1/DTD/svg11.dtd">
<!-- Generated by graphviz version 13.1.2 (20250808.2320)
 -->
<!-- Pages: 1 -->
<svg width="313pt" height="176pt"
 viewBox="0.00 0.00 313.00 176.00" xmlns="http://www.w3.org/2000/svg" xmlns:xlink="http://www.w3.org/1999/xlink">
<g id="graph0" class="graph" transform="scale(1 1) rotate(0) translate(4 171.76)">
<polygon fill="white" stroke="none" points="-4,4 -4,-171.76 309.29,-171.76 309.29,4 -4,4"/>
<g id="node1" class="node">
<title></title>
</g>
<!-- x1 -->
<g id="node2" class="node">
<title>x1</title>
<ellipse fill="none" stroke="black" cx="111.13" cy="-66.13" rx="20.13" ry="20.13"/>
<text xml:space="preserve" text-anchor="middle" x="111.13" y="-61.08" font-family="Times New Roman,serif" font-size="14.00">x1</text>
</g>
<!-- &#45;&gt;x1 -->
<g id="edge1" class="edge">
<title>&#45;&gt;x1</title>
<path fill="none" stroke="black" d="M53.99,-66.13C62.04,-66.13 70.98,-66.13 79.33,-66.13"/>
<polygon fill="black" stroke="black" points="79.05,-69.63 89.05,-66.13 79.05,-62.63 79.05,-69.63"/>
</g>
<!-- x2 -->
<g id="node3" class="node">
<title>x2</title>
<ellipse fill="none" stroke="black" cx="194.14" cy="-113.13" rx="20.13" ry="20.13"/>
<text xml:space="preserve" text-anchor="middle" x="194.14" y="-108.08" font-family="Times New Roman,serif" font-size="14.00">x2</text>
</g>
<!-- x1&#45;&gt;x2 -->
<g id="edge2" class="edge">
<title>x1&#45;&gt;x2</title>
<path fill="none" stroke="black" d="M128.92,-75.87C139.71,-82.13 153.96,-90.4 166.3,-97.56"/>
<polygon fill="black" stroke="black" points="164.39,-100.49 174.79,-102.48 167.9,-94.44 164.39,-100.49"/>
<text xml:space="preserve" text-anchor="middle" x="152.64" y="-94.24" font-family="Times New Roman,serif" font-size="14.00">a</text>
</g>
<!-- x3 -->
<g id="node4" class="node">
<title>x3</title>
<ellipse fill="none" stroke="black" cx="194.14" cy="-20.13" rx="20.13" ry="20.13"/>
<text xml:space="preserve" text-anchor="middle" x="194.14" y="-15.08" font-family="Times New Roman,serif" font-size="14.00">x3</text>
</g>
<!-- x1&#45;&gt;x3 -->
<g id="edge3" class="edge">
<title>x1&#45;&gt;x3</title>
<path fill="none" stroke="black" d="M128.92,-56.6C139.71,-50.47 153.96,-42.38 166.3,-35.37"/>
<polygon fill="black" stroke="black" points="167.82,-38.54 174.78,-30.56 164.36,-32.45 167.82,-38.54"/>
<text xml:space="preserve" text-anchor="middle" x="152.64" y="-47.71" font-family="Times New Roman,serif" font-size="14.00">b</text>
</g>
<!-- x2&#45;&gt;x2 -->
<g id="edge4" class="edge">
<title>x2&#45;&gt;x2</title>
<path fill="none" stroke="black" d="M186.68,-131.97C185.41,-142.06 187.9,-151.26 194.14,-151.26 197.85,-151.26 200.23,-148.02 201.29,-143.27"/>
<polygon fill="black" stroke="black" points="204.78,-143.57 201.56,-133.48 197.79,-143.38 204.78,-143.57"/>
<text xml:space="preserve" text-anchor="middle" x="194.14" y="-154.46" font-family="Times New Roman,serif" font-size="14.00">a</text>
</g>
<!-- x4 -->
<g id="node5" class="node">
<title>x4</title>
<ellipse fill="none" stroke="black" cx="281.16" cy="-66.13" rx="20.13" ry="20.13"/>
<ellipse fill="none" stroke="black" cx="281.16" cy="-66.13" rx="24.13" ry="24.13"/>
<text xml:space="preserve" text-anchor="middle" x="281.16" y="-61.08" font-family="Times New Roman,serif" font-size="14.00">x4</text>
</g>
<!-- x2&#45;&gt;x4 -->
<g id="edge5" class="edge">
<title>x2&#45;&gt;x4</title>
<path fill="none" stroke="black" d="M212.35,-103.62C222.96,-97.75 236.88,-90.06 249.35,-83.16"/>
<polygon fill="black" stroke="black" points="250.99,-86.25 258.05,-78.35 247.6,-80.13 250.99,-86.25"/>
<text xml:space="preserve" text-anchor="middle" x="235.65" y="-95.65" font-family="Times New Roman,serif" font-size="14.00">b</text>
</g>
<!-- x3&#45;&gt;x3 -->
<g id="edge6" class="edge">
<title>x3&#45;&gt;x3</title>
<path fill="none" stroke="black" d="M186.68,-38.97C185.41,-49.06 187.9,-58.26 194.14,-58.26 197.85,-58.26 200.23,-55.02 201.29,-50.27"/>
<polygon fill="black" stroke="black" points="204.78,-50.57 201.56,-40.48 197.79,-50.38 204.78,-50.57"/>
<text xml:space="preserve" text-anchor="middle" x="194.14" y="-61.46" font-family="Times New Roman,serif" font-size="14.00">a,b</text>
</g>
<!-- x4&#45;&gt;x3 -->
<g id="edge7" class="edge">
<title>x4&#45;&gt;x3</title>
<path fill="none" stroke="black" d="M259.37,-54.89C248.21,-48.84 234.31,-41.32 222.3,-34.82"/>
<polygon fill="black" stroke="black" points="224.14,-31.84 213.68,-30.16 220.81,-38 224.14,-31.84"/>
<text xml:space="preserve" text-anchor="middle" x="235.65" y="-46.33" font-family="Times New Roman,serif" font-size="14.00">a</text>
</g>
<!-- x4&#45;&gt;x4 -->
<g id="edge8" class="edge">
<title>x4&#45;&gt;x4</title>
<path fill="none" stroke="black" d="M272.76,-89.1C271.96,-99.38 274.76,-108.26 281.16,-108.26 284.96,-108.26 287.49,-105.13 288.75,-100.43"/>
<polygon fill="black" stroke="black" points="292.23,-100.83 289.45,-90.61 285.25,-100.34 292.23,-100.83"/>
<text xml:space="preserve" text-anchor="middle" x="281.16" y="-111.46" font-family="Times New Roman,serif" font-size="14.00">b</text>
</g>
</g>
</svg>