<?xml version="1.0" encoding="UTF-8" standalone="no"?>
<!DOCTYPE svg PUBLIC "-//W3C//DTD SVG 1.1//EN"
 "http://www.w3.org/Graphics/SVG/1.1/DTD/svg11.dtd">
<!-- Generated by graphviz version 13.1.2 (20250808.2320)
 -->
<!-- Pages: 1 -->
<svg width="396pt" height="125pt"
 viewBox="0.00 0.00 396.00 125.00" xmlns="http://www.w3.org/2000/svg" xmlns:xlink="http://www.w3.org/1999/xlink">
<g id="graph0" class="graph" transform="scale(1 1) rotate(0) translate(4 121.26)">
<polygon fill="white" stroke="none" points="-4,4 -4,-121.26 392.3,-121.26 392.3,4 -4,4"/>
<g id="node1" class="node">
<title></title>
</g>
<!-- q0 -->
<g id="node2" class="node">
<title>q0</title>
<ellipse fill="none" stroke="black" cx="111.13" cy="-41.13" rx="20.13" ry="20.13"/>
<text xml:space="preserve" text-anchor="middle" x="111.13" y="-36.08" font-family="Times New Roman,serif" font-size="14.00">q0</text>
</g>
<!-- &#45;&gt;q0 -->
<g id="edge1" class="edge">
<title>&#45;&gt;q0</title>
<path fill="none" stroke="black" d="M53.99,-41.13C62.04,-41.13 70.98,-41.13 79.33,-41.13"/>
<polygon fill="black" stroke="black" points="79.05,-44.63 89.05,-41.13 79.05,-37.63 79.05,-44.63"/>
</g>
<!-- q0&#45;&gt;q0 -->
<g id="edge2" class="edge">
<title>q0&#45;&gt;q0</title>
<path fill="none" stroke="black" d="M104.14,-60.36C103.07,-70.3 105.4,-79.26 111.13,-79.26 114.45,-79.26 116.62,-76.27 117.66,-71.82"/>
<polygon fill="black" stroke="black" points="121.16,-72 118.06,-61.87 114.16,-71.72 121.16,-72"/>
<text xml:space="preserve" text-anchor="middle" x="111.13" y="-82.46" font-family="Times New Roman,serif" font-size="14.00">b</text>
</g>
<!-- q1 -->
<g id="node5" class="node">
<title>q1</title>
<ellipse fill="none" stroke="black" cx="194.14" cy="-63.13" rx="20.13" ry="20.13"/>
<text xml:space="preserve" text-anchor="middle" x="194.14" y="-58.08" font-family="Times New Roman,serif" font-size="14.00">q1</text>
</g>
<!-- q0&#45;&gt;q1 -->
<g id="edge3" class="edge">
<title>q0&#45;&gt;q1</title>
<path fill="none" stroke="black" d="M129,-50.9C135.18,-54.05 142.36,-57.21 149.26,-59.13 153.41,-60.28 157.86,-61.12 162.27,-61.73"/>
<polygon fill="black" stroke="black" points="161.85,-65.21 172.14,-62.71 162.54,-58.24 161.85,-65.21"/>
<text xml:space="preserve" text-anchor="middle" x="152.64" y="-63.72" font-family="Times New Roman,serif" font-size="14.00">b</text>
</g>
<!-- q0&#45;&gt;q1 -->
<g id="edge4" class="edge">
<title>q0&#45;&gt;q1</title>
<path fill="none" stroke="black" d="M131.26,-37.21C139.08,-36.34 148.12,-36.26 156.01,-38.63 160.38,-39.94 164.71,-41.95 168.79,-44.27"/>
<polygon fill="black" stroke="black" points="166.71,-47.1 177,-49.61 170.53,-41.23 166.71,-47.1"/>
<text xml:space="preserve" text-anchor="middle" x="152.64" y="-41.83" font-family="Times New Roman,serif" font-size="14.00">a</text>
</g>
<!-- q3 -->
<g id="node3" class="node">
<title>q3</title>
<ellipse fill="none" stroke="black" cx="364.17" cy="-24.13" rx="20.13" ry="20.13"/>
<ellipse fill="none" stroke="black" cx="364.17" cy="-24.13" rx="24.13" ry="24.13"/>
<text xml:space="preserve" text-anchor="middle" x="364.17" y="-19.08" font-family="Times New Roman,serif" font-size="14.00">q3</text>
</g>
<!-- q3&#45;&gt;q3 -->
<g id="edge8" class="edge">
<title>q3&#45;&gt;q3</title>
<path fill="none" stroke="black" d="M359.93,-48.38C359.69,-58.1 361.1,-66.26 364.17,-66.26 365.89,-66.26 367.09,-63.68 367.77,-59.69"/>
<polygon fill="black" stroke="black" points="371.26,-60.07 368.32,-49.89 364.27,-59.68 371.26,-60.07"/>
<text xml:space="preserve" text-anchor="middle" x="364.17" y="-69.46" font-family="Times New Roman,serif" font-size="14.00">a</text>
</g>
<!-- q3&#45;&gt;q3 -->
<g id="edge9" class="edge">
<title>q3&#45;&gt;q3</title>
<path fill="none" stroke="black" d="M356.74,-47.59C353.96,-65.74 356.44,-84.26 364.17,-84.26 370.27,-84.26 373.1,-72.73 372.66,-58.95"/>
<polygon fill="black" stroke="black" points="376.15,-58.72 371.74,-49.09 369.18,-59.37 376.15,-58.72"/>
<text xml:space="preserve" text-anchor="middle" x="364.17" y="-87.46" font-family="Times New Roman,serif" font-size="14.00">b</text>
</g>
<!-- q2 -->
<g id="node4" class="node">
<title>q2</title>
<ellipse fill="none" stroke="black" cx="277.16" cy="-24.13" rx="20.13" ry="20.13"/>
<text xml:space="preserve" text-anchor="middle" x="277.16" y="-19.08" font-family="Times New Roman,serif" font-size="14.00">q2</text>
</g>
<!-- q2&#45;&gt;q0 -->
<g id="edge6" class="edge">
<title>q2&#45;&gt;q0</title>
<path fill="none" stroke="black" d="M257.17,-20.18C236.53,-16.52 202.68,-12.37 174.01,-17.63 162.64,-19.72 150.65,-23.79 140.28,-27.97"/>
<polygon fill="black" stroke="black" points="138.99,-24.72 131.17,-31.87 141.74,-31.16 138.99,-24.72"/>
<text xml:space="preserve" text-anchor="middle" x="194.14" y="-20.83" font-family="Times New Roman,serif" font-size="14.00">a</text>
</g>
<!-- q2&#45;&gt;q3 -->
<g id="edge7" class="edge">
<title>q2&#45;&gt;q3</title>
<path fill="none" stroke="black" d="M297.45,-24.13C306.56,-24.13 317.72,-24.13 328.25,-24.13"/>
<polygon fill="black" stroke="black" points="328.2,-27.63 338.2,-24.13 328.2,-20.63 328.2,-27.63"/>
<text xml:space="preserve" text-anchor="start" x="315.29" y="-27.33" font-family="Times New Roman,serif" font-size="14.00">λ</text>
</g>
<!-- q1&#45;&gt;q2 -->
<g id="edge5" class="edge">
<title>q1&#45;&gt;q2</title>
<path fill="none" stroke="black" d="M212.72,-54.67C223.13,-49.66 236.54,-43.2 248.35,-37.52"/>
<polygon fill="black" stroke="black" points="249.76,-40.72 257.25,-33.23 246.72,-34.42 249.76,-40.72"/>
<text xml:space="preserve" text-anchor="middle" x="235.65" y="-48" font-family="Times New Roman,serif" font-size="14.00">b</text>
</g>
</g>
</svg>