<?xml version="1.0" encoding="UTF-8" standalone="no"?>
<!DOCTYPE svg PUBLIC "-//W3C//DTD SVG 1.1//EN"
 "http://www.w3.org/Graphics/SVG/1.1/DTD/svg11.dtd">
<!-- Generated by graphviz version 13.1.2 (20250808.2320)
 -->
<!-- Pages: 1 -->
<svg width="484pt" height="282pt"
 viewBox="0.00 0.00 484.00 282.00" xmlns="http://www.w3.org/2000/svg" xmlns:xlink="http://www.w3.org/1999/xlink">
<g id="graph0" class="graph" transform="scale(1 1) rotate(0) translate(4 277.73)">
<polygon fill="white" stroke="none" points="-4,4 -4,-277.73 480.32,-277.73 480.32,4 -4,4"/>
<g id="node1" class="node">
<title></title>
</g>
<!-- 0 -->
<g id="node2" class="node">
<title>0</title>
<ellipse fill="none" stroke="black" cx="120.34" cy="-209.89" rx="21.15" ry="21.15"/>
<ellipse fill="none" stroke="black" cx="120.34" cy="-209.89" rx="25.15" ry="25.15"/>
<text xml:space="preserve" text-anchor="middle" x="120.34" y="-203.71" font-family="Times New Roman,serif" font-size="14.00">∅</text>
</g>
<!-- &#45;&gt;0 -->
<g id="edge1" class="edge">
<title>&#45;&gt;0</title>
<path fill="none" stroke="black" d="M53.93,-209.89C63.18,-209.89 73.77,-209.89 83.69,-209.89"/>
<polygon fill="black" stroke="black" points="83.4,-213.39 93.4,-209.89 83.4,-206.39 83.4,-213.39"/>
</g>
<!-- {x3} -->
<g id="node3" class="node">
<title>{x3}</title>
<ellipse fill="none" stroke="black" cx="120.34" cy="-119.89" rx="29.34" ry="29.34"/>
<text xml:space="preserve" text-anchor="middle" x="120.34" y="-114.84" font-family="Times New Roman,serif" font-size="14.00">{x3}</text>
</g>
<!-- 0&#45;&gt;{x3} -->
<g id="edge3" class="edge">
<title>0&#45;&gt;{x3}</title>
<path fill="none" stroke="black" d="M120.34,-184.28C120.34,-176.97 120.34,-168.81 120.34,-160.82"/>
<polygon fill="black" stroke="black" points="123.84,-160.87 120.34,-150.87 116.84,-160.87 123.84,-160.87"/>
<text xml:space="preserve" text-anchor="middle" x="109.09" y="-161.93" font-family="Times New Roman,serif" font-size="14.00">b</text>
</g>
<!-- {x2} -->
<g id="node4" class="node">
<title>{x2}</title>
<ellipse fill="none" stroke="black" cx="232.8" cy="-209.89" rx="29.34" ry="29.34"/>
<text xml:space="preserve" text-anchor="middle" x="232.8" y="-204.84" font-family="Times New Roman,serif" font-size="14.00">{x2}</text>
</g>
<!-- 0&#45;&gt;{x2} -->
<g id="edge2" class="edge">
<title>0&#45;&gt;{x2}</title>
<path fill="none" stroke="black" d="M145.86,-209.89C159.33,-209.89 176.38,-209.89 191.73,-209.89"/>
<polygon fill="black" stroke="black" points="191.54,-213.39 201.54,-209.89 191.54,-206.39 191.54,-213.39"/>
<text xml:space="preserve" text-anchor="middle" x="170.69" y="-213.09" font-family="Times New Roman,serif" font-size="14.00">a</text>
</g>
<!-- {x3}&#45;&gt;{x3} -->
<g id="edge6" class="edge">
<title>{x3}:w&#45;&gt;{x3}:w</title>
<path fill="none" stroke="black" d="M90.73,-119.89C83.03,-128.89 67.08,-128.89 67.08,-119.89 67.08,-113.84 74.28,-111.86 81.34,-113.93"/>
<polygon fill="black" stroke="black" points="79.13,-116.68 89.45,-119.08 82.88,-110.77 79.13,-116.68"/>
<text xml:space="preserve" text-anchor="middle" x="58.83" y="-114.84" font-family="Times New Roman,serif" font-size="14.00">a,b</text>
</g>
<!-- {x2}&#45;&gt;{x2} -->
<g id="edge4" class="edge">
<title>{x2}&#45;&gt;{x2}</title>
<path fill="none" stroke="black" d="M221.23,-237.13C220.57,-248.06 224.43,-257.23 232.8,-257.23 238.03,-257.23 241.5,-253.65 243.21,-248.29"/>
<polygon fill="black" stroke="black" points="246.66,-248.95 244.22,-238.64 239.7,-248.22 246.66,-248.95"/>
<text xml:space="preserve" text-anchor="middle" x="232.8" y="-260.43" font-family="Times New Roman,serif" font-size="14.00">a</text>
</g>
<!-- {x1,x4} -->
<g id="node6" class="node">
<title>{x1,x4}</title>
<ellipse fill="none" stroke="black" cx="373.55" cy="-194.89" rx="41.12" ry="41.12"/>
<ellipse fill="none" stroke="black" cx="373.55" cy="-194.89" rx="45.12" ry="45.12"/>
<text xml:space="preserve" text-anchor="middle" x="373.55" y="-189.84" font-family="Times New Roman,serif" font-size="14.00">{x1,x4}</text>
</g>
<!-- {x2}&#45;&gt;{x1,x4} -->
<g id="edge5" class="edge">
<title>{x2}&#45;&gt;{x1,x4}</title>
<path fill="none" stroke="black" d="M262.22,-206.82C278.05,-205.1 298.31,-202.91 317.15,-200.88"/>
<polygon fill="black" stroke="black" points="317.26,-204.39 326.83,-199.83 316.51,-197.43 317.26,-204.39"/>
<text xml:space="preserve" text-anchor="middle" x="295.29" y="-206.48" font-family="Times New Roman,serif" font-size="14.00">b</text>
</g>
<!-- {x2,x3} -->
<g id="node5" class="node">
<title>{x2,x3}</title>
<ellipse fill="none" stroke="black" cx="232.8" cy="-86.89" rx="41.12" ry="41.12"/>
<text xml:space="preserve" text-anchor="middle" x="232.8" y="-81.84" font-family="Times New Roman,serif" font-size="14.00">{x2,x3}</text>
</g>
<!-- {x2,x3}&#45;&gt;{x2,x3} -->
<g id="edge9" class="edge">
<title>{x2,x3}&#45;&gt;{x2,x3}</title>
<path fill="none" stroke="black" d="M221.23,-126.67C221.79,-137.63 225.64,-146 232.8,-146 237.28,-146 240.46,-142.73 242.36,-137.6"/>
<polygon fill="black" stroke="black" points="245.73,-138.63 244.1,-128.16 238.84,-137.36 245.73,-138.63"/>
<text xml:space="preserve" text-anchor="middle" x="232.8" y="-149.2" font-family="Times New Roman,serif" font-size="14.00">a</text>
</g>
<!-- {x1,x3,x4} -->
<g id="node7" class="node">
<title>{x1,x3,x4}</title>
<ellipse fill="none" stroke="black" cx="373.55" cy="-56.89" rx="52.89" ry="52.89"/>
<ellipse fill="none" stroke="black" cx="373.55" cy="-56.89" rx="56.89" ry="56.89"/>
<text xml:space="preserve" text-anchor="middle" x="373.55" y="-51.84" font-family="Times New Roman,serif" font-size="14.00">{x1,x3,x4}</text>
</g>
<!-- {x2,x3}&#45;&gt;{x1,x3,x4} -->
<g id="edge10" class="edge">
<title>{x2,x3}&#45;&gt;{x1,x3,x4}</title>
<path fill="none" stroke="black" d="M273.19,-78.37C283.53,-76.14 294.96,-73.66 306.29,-71.21"/>
<polygon fill="black" stroke="black" points="307.02,-74.64 316.05,-69.1 305.54,-67.8 307.02,-74.64"/>
<text xml:space="preserve" text-anchor="middle" x="295.29" y="-76.88" font-family="Times New Roman,serif" font-size="14.00">b</text>
</g>
<!-- {x1,x4}&#45;&gt;{x2,x3} -->
<g id="edge7" class="edge">
<title>{x1,x4}&#45;&gt;{x2,x3}</title>
<path fill="none" stroke="black" d="M337.63,-167.7C318.55,-152.85 294.82,-134.38 274.86,-118.84"/>
<polygon fill="black" stroke="black" points="277.22,-116.25 267.18,-112.87 272.92,-121.77 277.22,-116.25"/>
<text xml:space="preserve" text-anchor="middle" x="295.29" y="-137.62" font-family="Times New Roman,serif" font-size="14.00">a</text>
</g>
<!-- {x1,x4}&#45;&gt;{x1,x3,x4} -->
<g id="edge8" class="edge">
<title>{x1,x4}&#45;&gt;{x1,x3,x4}</title>
<path fill="none" stroke="black" d="M373.55,-149.3C373.55,-141.67 373.55,-133.61 373.55,-125.55"/>
<polygon fill="black" stroke="black" points="377.05,-125.73 373.55,-115.73 370.05,-125.73 377.05,-125.73"/>
<text xml:space="preserve" text-anchor="middle" x="362.3" y="-126.72" font-family="Times New Roman,serif" font-size="14.00">b</text>
</g>
<!-- {x1,x3,x4}&#45;&gt;{x2,x3} -->
<g id="edge11" class="edge">
<title>{x1,x3,x4}&#45;&gt;{x2,x3}</title>
<path fill="none" stroke="black" d="M316.98,-50.06C308.49,-50.28 299.9,-51.25 291.92,-53.39 287.04,-54.69 282.15,-56.52 277.38,-58.65"/>
<polygon fill="black" stroke="black" points="275.96,-55.44 268.58,-63.04 279.09,-61.71 275.96,-55.44"/>
<text xml:space="preserve" text-anchor="middle" x="295.29" y="-56.59" font-family="Times New Roman,serif" font-size="14.00">a</text>
</g>
<!-- {x1,x3,x4}&#45;&gt;{x1,x3,x4} -->
<g id="edge12" class="edge">
<title>{x1,x3,x4}:e&#45;&gt;{x1,x3,x4}:e</title>
<path fill="none" stroke="black" d="M430.68,-56.89C443.49,-65.89 469.57,-65.89 469.57,-56.89 469.57,-49.93 453.97,-48.35 440.97,-52.16"/>
<polygon fill="black" stroke="black" points="439.68,-48.9 432.06,-56.25 442.6,-55.26 439.68,-48.9"/>
<text xml:space="preserve" text-anchor="middle" x="472.95" y="-51.84" font-family="Times New Roman,serif" font-size="14.00">b</text>
</g>
</g>
</svg>