<?xml version="1.0" encoding="UTF-8" standalone="no"?>
<!DOCTYPE svg PUBLIC "-//W3C//DTD SVG 1.1//EN"
 "http://www.w3.org/Graphics/SVG/1.1/DTD/svg11.dtd">
<!-- Generated by graphviz version 13.1.2 (20250808.2320)
 -->
<!-- Pages: 1 -->
<svg width="313pt" height="121pt"
 viewBox="0.00 0.00 313.00 121.00" xmlns="http://www.w3.org/2000/svg" xmlns:xlink="http://www.w3.org/1999/xlink">
<g id="graph0" class="graph" transform="scale(1 1) rotate(0) translate(4 117.26)">
<polygon fill="white" stroke="none" points="-4,4 -4,-117.26 308.54,-117.26 308.54,4 -4,4"/>
<g id="node1" class="node">
<title></title>
</g>
<!-- q0 -->
<g id="node2" class="node">
<title>q0</title>
<ellipse fill="none" stroke="black" cx="111.13" cy="-24.13" rx="20.13" ry="20.13"/>
<text xml:space="preserve" text-anchor="middle" x="111.13" y="-19.08" font-family="Times New Roman,serif" font-size="14.00">q0</text>
</g>
<!-- &#45;&gt;q0 -->
<g id="edge1" class="edge">
<title>&#45;&gt;q0</title>
<path fill="none" stroke="black" d="M53.99,-24.13C62.04,-24.13 70.98,-24.13 79.33,-24.13"/>
<polygon fill="black" stroke="black" points="79.05,-27.63 89.05,-24.13 79.05,-20.63 79.05,-27.63"/>
</g>
<!-- q0&#45;&gt;q0 -->
<g id="edge2" class="edge">
<title>q0&#45;&gt;q0</title>
<path fill="none" stroke="black" d="M107.6,-44.14C107.16,-53.77 108.34,-62.26 111.13,-62.26 112.7,-62.26 113.76,-59.57 114.31,-55.51"/>
<polygon fill="black" stroke="black" points="117.8,-55.76 114.62,-45.65 110.81,-55.54 117.8,-55.76"/>
<text xml:space="preserve" text-anchor="middle" x="111.13" y="-65.46" font-family="Times New Roman,serif" font-size="14.00">a</text>
</g>
<!-- q0&#45;&gt;q0 -->
<g id="edge4" class="edge">
<title>q0&#45;&gt;q0</title>
<path fill="none" stroke="black" d="M105.18,-43.69C102.28,-61.35 104.27,-80.26 111.13,-80.26 116.55,-80.26 118.93,-68.49 118.27,-54.84"/>
<polygon fill="black" stroke="black" points="121.78,-54.77 117.24,-45.2 114.82,-55.51 121.78,-54.77"/>
<text xml:space="preserve" text-anchor="middle" x="111.13" y="-83.46" font-family="Times New Roman,serif" font-size="14.00">b</text>
</g>
<!-- q1 -->
<g id="node4" class="node">
<title>q1</title>
<ellipse fill="none" stroke="black" cx="193.39" cy="-24.13" rx="20.13" ry="20.13"/>
<text xml:space="preserve" text-anchor="middle" x="193.39" y="-19.08" font-family="Times New Roman,serif" font-size="14.00">q1</text>
</g>
<!-- q0&#45;&gt;q1 -->
<g id="edge3" class="edge">
<title>q0&#45;&gt;q1</title>
<path fill="none" stroke="black" d="M131.56,-24.13C140.56,-24.13 151.48,-24.13 161.57,-24.13"/>
<polygon fill="black" stroke="black" points="161.35,-27.63 171.35,-24.13 161.35,-20.63 161.35,-27.63"/>
<text xml:space="preserve" text-anchor="middle" x="152.26" y="-27.33" font-family="Times New Roman,serif" font-size="14.00">a</text>
</g>
<!-- q2 -->
<g id="node3" class="node">
<title>q2</title>
<ellipse fill="none" stroke="black" cx="280.41" cy="-24.13" rx="20.13" ry="20.13"/>
<ellipse fill="none" stroke="black" cx="280.41" cy="-24.13" rx="24.13" ry="24.13"/>
<text xml:space="preserve" text-anchor="middle" x="280.41" y="-19.08" font-family="Times New Roman,serif" font-size="14.00">q2</text>
</g>
<!-- q1&#45;&gt;q2 -->
<g id="edge5" class="edge">
<title>q1&#45;&gt;q2</title>
<path fill="none" stroke="black" d="M213.68,-24.13C222.8,-24.13 233.96,-24.13 244.48,-24.13"/>
<polygon fill="black" stroke="black" points="244.44,-27.63 254.44,-24.13 244.44,-20.63 244.44,-27.63"/>
<text xml:space="preserve" text-anchor="middle" x="234.9" y="-27.33" font-family="Times New Roman,serif" font-size="14.00">a</text>
</g>
<!-- q1&#45;&gt;q2 -->
<g id="edge6" class="edge">
<title>q1&#45;&gt;q2</title>
<path fill="none" stroke="black" d="M210.64,-12.84C216.88,-9.14 224.25,-5.51 231.52,-3.63 237.76,-2.02 244.24,-2.9 250.33,-5"/>
<polygon fill="black" stroke="black" points="248.85,-8.17 259.39,-9.2 251.79,-1.82 248.85,-8.17"/>
<text xml:space="preserve" text-anchor="middle" x="234.9" y="-6.83" font-family="Times New Roman,serif" font-size="14.00">b</text>
</g>
</g>
</svg>