<?xml version="1.0" encoding="UTF-8" standalone="no"?>
<!DOCTYPE svg PUBLIC "-//W3C//DTD SVG 1.1//EN"
 "http://www.w3.org/Graphics/SVG/1.1/DTD/svg11.dtd">
<!-- Generated by graphviz version 13.1.2 (20250808.2320)
 -->
<!-- Pages: 1 -->
<svg width="307pt" height="109pt"
 viewBox="0.00 0.00 307.00 109.00" xmlns="http://www.w3.org/2000/svg" xmlns:xlink="http://www.w3.org/1999/xlink">
<g id="graph0" class="graph" transform="scale(1 1) rotate(0) translate(4 104.65)">
<polygon fill="white" stroke="none" points="-4,4 -4,-104.65 303.25,-104.65 303.25,4 -4,4"/>
<!-- 1&#45; -->
<g id="node1" class="node">
<title>1&#45;</title>
<ellipse fill="none" stroke="black" cx="18.6" cy="-23" rx="18.6" ry="18.6"/>
<text xml:space="preserve" text-anchor="middle" x="18.6" y="-17.95" font-family="Times New Roman,serif" font-size="14.00">1&#45;</text>
</g>
<!-- 2 -->
<g id="node2" class="node">
<title>2</title>
<ellipse fill="none" stroke="black" cx="112.94" cy="-60" rx="18" ry="18"/>
<text xml:space="preserve" text-anchor="middle" x="112.94" y="-54.95" font-family="Times New Roman,serif" font-size="14.00">2</text>
</g>
<!-- 1&#45;&#45;&gt;2 -->
<g id="edge1" class="edge">
<title>1&#45;&#45;&gt;2</title>
<path fill="none" stroke="black" d="M36.11,-29.61C49.85,-35.12 69.67,-43.06 85.6,-49.45"/>
<polygon fill="black" stroke="black" points="83.89,-52.53 94.48,-53 86.5,-46.04 83.89,-52.53"/>
<text xml:space="preserve" text-anchor="middle" x="66.07" y="-49.1" font-family="Times New Roman,serif" font-size="14.00">H,T</text>
</g>
<!-- 3 -->
<g id="node3" class="node">
<title>3</title>
<ellipse fill="none" stroke="black" cx="194.69" cy="-18" rx="18" ry="18"/>
<text xml:space="preserve" text-anchor="middle" x="194.69" y="-12.95" font-family="Times New Roman,serif" font-size="14.00">3</text>
</g>
<!-- 2&#45;&gt;3 -->
<g id="edge2" class="edge">
<title>2&#45;&gt;3</title>
<path fill="none" stroke="black" d="M129.27,-51.89C135.39,-48.65 142.5,-44.9 148.94,-41.5 155.21,-38.2 161.97,-34.64 168.3,-31.32"/>
<polygon fill="black" stroke="black" points="169.79,-34.49 177.02,-26.74 166.54,-28.29 169.79,-34.49"/>
<text xml:space="preserve" text-anchor="middle" x="153.82" y="-44.7" font-family="Times New Roman,serif" font-size="14.00">H</text>
</g>
<!-- 4+ -->
<g id="node4" class="node">
<title>4+</title>
<ellipse fill="none" stroke="black" cx="278.1" cy="-45" rx="21.15" ry="21.15"/>
<text xml:space="preserve" text-anchor="middle" x="278.1" y="-39.95" font-family="Times New Roman,serif" font-size="14.00">4+</text>
</g>
<!-- 2&#45;&gt;4+ -->
<g id="edge3" class="edge">
<title>2&#45;&gt;4+</title>
<path fill="none" stroke="black" d="M131.41,-59.88C155.66,-59.53 200.82,-58.16 238.94,-53 241.15,-52.7 243.43,-52.35 245.72,-51.95"/>
<polygon fill="black" stroke="black" points="246.35,-55.4 255.51,-50.07 245.03,-48.52 246.35,-55.4"/>
<text xml:space="preserve" text-anchor="middle" x="194.69" y="-61.53" font-family="Times New Roman,serif" font-size="14.00">T</text>
</g>
<!-- 3&#45;&gt;1&#45; -->
<g id="edge4" class="edge">
<title>3&#45;&gt;1&#45;</title>
<path fill="none" stroke="black" d="M176.38,-17.48C163.78,-17.12 146.31,-16.68 130.94,-16.5 114.94,-16.31 110.93,-15.81 94.94,-16.5 79.72,-17.16 62.82,-18.55 48.89,-19.88"/>
<polygon fill="black" stroke="black" points="48.64,-16.39 39.04,-20.87 49.34,-23.36 48.64,-16.39"/>
<text xml:space="preserve" text-anchor="middle" x="112.94" y="-19.7" font-family="Times New Roman,serif" font-size="14.00">H</text>
</g>
<!-- 3&#45;&gt;4+ -->
<g id="edge5" class="edge">
<title>3&#45;&gt;4+</title>
<path fill="none" stroke="black" d="M212.16,-23.46C222.09,-26.76 235.05,-31.05 246.77,-34.94"/>
<polygon fill="black" stroke="black" points="245.46,-38.19 256.05,-38.02 247.66,-31.55 245.46,-38.19"/>
<text xml:space="preserve" text-anchor="middle" x="234.82" y="-35.51" font-family="Times New Roman,serif" font-size="14.00">T</text>
</g>
<!-- 4+&#45;&gt;4+ -->
<g id="edge6" class="edge">
<title>4+&#45;&gt;4+</title>
<path fill="none" stroke="black" d="M270.22,-65.15C269.13,-75.19 271.76,-84.15 278.1,-84.15 281.86,-84.15 284.32,-81 285.46,-76.33"/>
<polygon fill="black" stroke="black" points="288.94,-76.81 285.9,-66.66 281.95,-76.49 288.94,-76.81"/>
<text xml:space="preserve" text-anchor="middle" x="278.1" y="-87.35" font-family="Times New Roman,serif" font-size="14.00">H,T</text>
</g>
</g>
</svg>