<?xml version="1.0" encoding="UTF-8" standalone="no"?>
<!DOCTYPE svg PUBLIC "-//W3C//DTD SVG 1.1//EN"
 "http://www.w3.org/Graphics/SVG/1.1/DTD/svg11.dtd">
<!-- Generated by graphviz version 13.1.2 (20250808.2320)
 -->
<!-- Pages: 1 -->
<svg width="223pt" height="164pt"
 viewBox="0.00 0.00 223.00 164.00" xmlns="http://www.w3.org/2000/svg" xmlns:xlink="http://www.w3.org/1999/xlink">
<g id="graph0" class="graph" transform="scale(1 1) rotate(0) translate(4 160.26)">
<polygon fill="white" stroke="none" points="-4,4 -4,-160.26 219.29,-160.26 219.29,4 -4,4"/>
<!-- q1 -->
<g id="node1" class="node">
<title>q1</title>
<ellipse fill="none" stroke="black" cx="20.13" cy="-78.13" rx="20.13" ry="20.13"/>
<text xml:space="preserve" text-anchor="middle" x="20.13" y="-73.08" font-family="Times New Roman,serif" font-size="14.00">q1</text>
</g>
<!-- q2 -->
<g id="node2" class="node">
<title>q2</title>
<ellipse fill="none" stroke="black" cx="107.64" cy="-78.13" rx="20.13" ry="20.13"/>
<text xml:space="preserve" text-anchor="middle" x="107.64" y="-73.08" font-family="Times New Roman,serif" font-size="14.00">q2</text>
</g>
<!-- q1&#45;&gt;q2 -->
<g id="edge1" class="edge">
<title>q1&#45;&gt;q2</title>
<path fill="none" stroke="black" d="M40.54,-78.13C50.96,-78.13 64.05,-78.13 75.83,-78.13"/>
<polygon fill="black" stroke="black" points="75.51,-81.63 85.51,-78.13 75.51,-74.63 75.51,-81.63"/>
<text xml:space="preserve" text-anchor="middle" x="63.89" y="-81.33" font-family="Times New Roman,serif" font-size="14.00">r1</text>
</g>
<!-- q2&#45;&gt;q2 -->
<g id="edge2" class="edge">
<title>q2&#45;&gt;q2</title>
<path fill="none" stroke="black" d="M99.78,-96.97C98.44,-107.06 101.06,-116.26 107.64,-116.26 111.55,-116.26 114.06,-113.02 115.18,-108.27"/>
<polygon fill="black" stroke="black" points="118.67,-108.58 115.46,-98.48 111.67,-108.37 118.67,-108.58"/>
<text xml:space="preserve" text-anchor="middle" x="107.64" y="-119.46" font-family="Times New Roman,serif" font-size="14.00">r2</text>
</g>
<!-- q3 -->
<g id="node3" class="node">
<title>q3</title>
<ellipse fill="none" stroke="black" cx="195.16" cy="-136.13" rx="20.13" ry="20.13"/>
<text xml:space="preserve" text-anchor="middle" x="195.16" y="-131.08" font-family="Times New Roman,serif" font-size="14.00">q3</text>
</g>
<!-- q2&#45;&gt;q3 -->
<g id="edge3" class="edge">
<title>q2&#45;&gt;q3</title>
<path fill="none" stroke="black" d="M124.73,-89.04C137.07,-97.41 154.35,-109.13 168.58,-118.79"/>
<polygon fill="black" stroke="black" points="166.36,-121.51 176.6,-124.22 170.29,-115.71 166.36,-121.51"/>
<text xml:space="preserve" text-anchor="middle" x="151.4" y="-113.8" font-family="Times New Roman,serif" font-size="14.00">r3</text>
</g>
<!-- q4 -->
<g id="node4" class="node">
<title>q4</title>
<ellipse fill="none" stroke="black" cx="195.16" cy="-78.13" rx="20.13" ry="20.13"/>
<text xml:space="preserve" text-anchor="middle" x="195.16" y="-73.08" font-family="Times New Roman,serif" font-size="14.00">q4</text>
</g>
<!-- q2&#45;&gt;q4 -->
<g id="edge4" class="edge">
<title>q2&#45;&gt;q4</title>
<path fill="none" stroke="black" d="M128.05,-78.13C138.47,-78.13 151.56,-78.13 163.34,-78.13"/>
<polygon fill="black" stroke="black" points="163.02,-81.63 173.02,-78.13 163.02,-74.63 163.02,-81.63"/>
<text xml:space="preserve" text-anchor="middle" x="151.4" y="-81.33" font-family="Times New Roman,serif" font-size="14.00">r4</text>
</g>
<!-- q5 -->
<g id="node5" class="node">
<title>q5</title>
<ellipse fill="none" stroke="black" cx="195.16" cy="-20.13" rx="20.13" ry="20.13"/>
<text xml:space="preserve" text-anchor="middle" x="195.16" y="-15.08" font-family="Times New Roman,serif" font-size="14.00">q5</text>
</g>
<!-- q2&#45;&gt;q5 -->
<g id="edge5" class="edge">
<title>q2&#45;&gt;q5</title>
<path fill="none" stroke="black" d="M124.73,-67.22C137.07,-58.85 154.35,-47.13 168.58,-37.48"/>
<polygon fill="black" stroke="black" points="170.29,-40.55 176.6,-32.04 166.36,-34.76 170.29,-40.55"/>
<text xml:space="preserve" text-anchor="middle" x="151.4" y="-55.8" font-family="Times New Roman,serif" font-size="14.00">r5</text>
</g>
</g>
</svg>