<?xml version="1.0" encoding="UTF-8" standalone="no"?>
<!DOCTYPE svg PUBLIC "-//W3C//DTD SVG 1.1//EN"
 "http://www.w3.org/Graphics/SVG/1.1/DTD/svg11.dtd">
<!-- Generated by graphviz version 13.1.2 (20250808.2320)
 -->
<!-- Pages: 1 -->
<svg width="571pt" height="294pt"
 viewBox="0.00 0.00 571.00 294.00" xmlns="http://www.w3.org/2000/svg" xmlns:xlink="http://www.w3.org/1999/xlink">
<g id="graph0" class="graph" transform="scale(1 1) rotate(0) translate(4 289.91)">
<polygon fill="white" stroke="none" points="-4,4 -4,-289.91 567.42,-289.91 567.42,4 -4,4"/>
<g id="node1" class="node">
<title></title>
</g>
<!-- {q0} -->
<g id="node2" class="node">
<title>{q0}</title>
<ellipse fill="none" stroke="black" cx="120.34" cy="-29.34" rx="29.34" ry="29.34"/>
<text xml:space="preserve" text-anchor="middle" x="120.34" y="-24.29" font-family="Times New Roman,serif" font-size="14.00">{q0}</text>
</g>
<!-- &#45;&gt;{q0} -->
<g id="edge1" class="edge">
<title>&#45;&gt;{q0}</title>
<path fill="none" stroke="black" d="M53.93,-29.34C61.84,-29.34 70.72,-29.34 79.33,-29.34"/>
<polygon fill="black" stroke="black" points="79.27,-32.84 89.27,-29.34 79.27,-25.84 79.27,-32.84"/>
</g>
<!-- {q0}&#45;&gt;{q0} -->
<g id="edge3" class="edge">
<title>{q0}&#45;&gt;{q0}</title>
<path fill="none" stroke="black" d="M111.39,-57.53C111.1,-68.04 114.08,-76.69 120.34,-76.69 124.06,-76.69 126.62,-73.64 128.03,-68.96"/>
<polygon fill="black" stroke="black" points="131.51,-69.36 129.13,-59.04 124.55,-68.59 131.51,-69.36"/>
<text xml:space="preserve" text-anchor="middle" x="120.34" y="-79.89" font-family="Times New Roman,serif" font-size="14.00">b</text>
</g>
<!-- {q0,q1} -->
<g id="node3" class="node">
<title>{q0,q1}</title>
<ellipse fill="none" stroke="black" cx="232.8" cy="-111.34" rx="41.12" ry="41.12"/>
<text xml:space="preserve" text-anchor="middle" x="232.8" y="-106.29" font-family="Times New Roman,serif" font-size="14.00">{q0,q1}</text>
</g>
<!-- {q0}&#45;&gt;{q0,q1} -->
<g id="edge2" class="edge">
<title>{q0}&#45;&gt;{q0,q1}</title>
<path fill="none" stroke="black" d="M144.5,-46.53C157.72,-56.35 174.69,-68.95 190.15,-80.42"/>
<polygon fill="black" stroke="black" points="187.71,-82.97 197.83,-86.12 191.88,-77.35 187.71,-82.97"/>
<text xml:space="preserve" text-anchor="middle" x="170.69" y="-71.08" font-family="Times New Roman,serif" font-size="14.00">a</text>
</g>
<!-- {q0,q2} -->
<g id="node4" class="node">
<title>{q0,q2}</title>
<ellipse fill="none" stroke="black" cx="518.31" cy="-90.34" rx="41.12" ry="41.12"/>
<ellipse fill="none" stroke="black" cx="518.31" cy="-90.34" rx="45.12" ry="45.12"/>
<text xml:space="preserve" text-anchor="middle" x="518.31" y="-85.29" font-family="Times New Roman,serif" font-size="14.00">{q0,q2}</text>
</g>
<!-- {q0,q1}&#45;&gt;{q0,q2} -->
<g id="edge5" class="edge">
<title>{q0,q1}&#45;&gt;{q0,q2}</title>
<path fill="none" stroke="black" d="M245.22,-150.76C257.14,-183.91 279.41,-229.18 316.67,-250.34 360.64,-275.32 386.99,-276.2 430.44,-250.34 468.51,-227.69 490.94,-181.88 503.43,-145.06"/>
<polygon fill="black" stroke="black" points="506.65,-146.48 506.38,-135.89 499.99,-144.34 506.65,-146.48"/>
<text xml:space="preserve" text-anchor="middle" x="373.55" y="-272.61" font-family="Times New Roman,serif" font-size="14.00">b</text>
</g>
<!-- {q0,q1,q2} -->
<g id="node5" class="node">
<title>{q0,q1,q2}</title>
<ellipse fill="none" stroke="black" cx="373.55" cy="-150.34" rx="52.89" ry="52.89"/>
<ellipse fill="none" stroke="black" cx="373.55" cy="-150.34" rx="56.89" ry="56.89"/>
<text xml:space="preserve" text-anchor="middle" x="373.55" y="-145.29" font-family="Times New Roman,serif" font-size="14.00">{q0,q1,q2}</text>
</g>
<!-- {q0,q1}&#45;&gt;{q0,q1,q2} -->
<g id="edge4" class="edge">
<title>{q0,q1}&#45;&gt;{q0,q1,q2}</title>
<path fill="none" stroke="black" d="M272.82,-122.31C283.62,-125.35 295.65,-128.73 307.5,-132.06"/>
<polygon fill="black" stroke="black" points="306.27,-135.35 316.84,-134.68 308.16,-128.61 306.27,-135.35"/>
<text xml:space="preserve" text-anchor="middle" x="295.29" y="-131.71" font-family="Times New Roman,serif" font-size="14.00">a</text>
</g>
<!-- {q0,q2}&#45;&gt;{q0} -->
<g id="edge9" class="edge">
<title>{q0,q2}&#45;&gt;{q0}</title>
<path fill="none" stroke="black" d="M476.44,-72.77C462.14,-67.3 445.81,-61.8 430.44,-58.34 335.49,-37 220.71,-31.34 161.31,-29.85"/>
<polygon fill="black" stroke="black" points="161.44,-26.35 151.36,-29.64 161.28,-33.35 161.44,-26.35"/>
<text xml:space="preserve" text-anchor="middle" x="295.29" y="-41.29" font-family="Times New Roman,serif" font-size="14.00">b</text>
</g>
<!-- {q0,q2}&#45;&gt;{q0,q1} -->
<g id="edge8" class="edge">
<title>{q0,q2}&#45;&gt;{q0,q1}</title>
<path fill="none" stroke="black" d="M474.86,-77.05C433.86,-66.19 370.27,-54.63 316.67,-67.84 303.23,-71.16 289.57,-77.08 277.31,-83.51"/>
<polygon fill="black" stroke="black" points="275.78,-80.36 268.71,-88.25 279.16,-86.49 275.78,-80.36"/>
<text xml:space="preserve" text-anchor="middle" x="373.55" y="-71.04" font-family="Times New Roman,serif" font-size="14.00">a</text>
</g>
<!-- {q0,q1,q2}&#45;&gt;{q0,q2} -->
<g id="edge7" class="edge">
<title>{q0,q1,q2}&#45;&gt;{q0,q2}</title>
<path fill="none" stroke="black" d="M426.5,-128.51C439.33,-123.12 453.06,-117.35 465.87,-111.96"/>
<polygon fill="black" stroke="black" points="467.11,-115.24 474.97,-108.14 464.4,-108.79 467.11,-115.24"/>
<text xml:space="preserve" text-anchor="middle" x="451.82" y="-121.74" font-family="Times New Roman,serif" font-size="14.00">b</text>
</g>
<!-- {q0,q1,q2}&#45;&gt;{q0,q1,q2} -->
<g id="edge6" class="edge">
<title>{q0,q1,q2}&#45;&gt;{q0,q1,q2}</title>
<path fill="none" stroke="black" d="M359.44,-205.86C360.98,-217.15 365.68,-225.23 373.55,-225.23 378.47,-225.23 382.16,-222.07 384.6,-216.95"/>
<polygon fill="black" stroke="black" points="387.97,-217.89 387.27,-207.32 381.23,-216.03 387.97,-217.89"/>
<text xml:space="preserve" text-anchor="middle" x="373.55" y="-228.43" font-family="Times New Roman,serif" font-size="14.00">a</text>
</g>
</g>
</svg>