<?xml version="1.0" encoding="UTF-8" standalone="no"?>
<!DOCTYPE svg PUBLIC "-//W3C//DTD SVG 1.1//EN"
 "http://www.w3.org/Graphics/SVG/1.1/DTD/svg11.dtd">
<!-- Generated by graphviz version 13.1.2 (20250808.2320)
 -->
<!-- Pages: 1 -->
<svg width="165pt" height="164pt"
 viewBox="0.00 0.00 165.00 164.00" xmlns="http://www.w3.org/2000/svg" xmlns:xlink="http://www.w3.org/1999/xlink">
<g id="graph0" class="graph" transform="scale(1 1) rotate(0) translate(4 160.26)">
<polygon fill="white" stroke="none" points="-4,4 -4,-160.26 161.02,-160.26 161.02,4 -4,4"/>
<!-- q1 -->
<g id="node1" class="node">
<title>q1</title>
<ellipse fill="none" stroke="black" cx="20.13" cy="-78.13" rx="20.13" ry="20.13"/>
<text xml:space="preserve" text-anchor="middle" x="20.13" y="-73.08" font-family="Times New Roman,serif" font-size="14.00">q1</text>
</g>
<!-- q3 -->
<g id="node2" class="node">
<title>q3</title>
<ellipse fill="none" stroke="black" cx="136.89" cy="-136.13" rx="20.13" ry="20.13"/>
<text xml:space="preserve" text-anchor="middle" x="136.89" y="-131.08" font-family="Times New Roman,serif" font-size="14.00">q3</text>
</g>
<!-- q1&#45;&gt;q3 -->
<g id="edge1" class="edge">
<title>q1&#45;&gt;q3</title>
<path fill="none" stroke="black" d="M38,-88C44.31,-91.6 51.56,-95.64 58.26,-99.13 74.57,-107.62 93.15,-116.5 108.04,-123.43"/>
<polygon fill="black" stroke="black" points="106.23,-126.45 116.77,-127.47 109.16,-120.09 106.23,-126.45"/>
<text xml:space="preserve" text-anchor="middle" x="78.51" y="-122.03" font-family="Times New Roman,serif" font-size="14.00">r1r2*r3</text>
</g>
<!-- q4 -->
<g id="node3" class="node">
<title>q4</title>
<ellipse fill="none" stroke="black" cx="136.89" cy="-78.13" rx="20.13" ry="20.13"/>
<text xml:space="preserve" text-anchor="middle" x="136.89" y="-73.08" font-family="Times New Roman,serif" font-size="14.00">q4</text>
</g>
<!-- q1&#45;&gt;q4 -->
<g id="edge2" class="edge">
<title>q1&#45;&gt;q4</title>
<path fill="none" stroke="black" d="M40.6,-78.13C58.24,-78.13 84.53,-78.13 105.04,-78.13"/>
<polygon fill="black" stroke="black" points="104.82,-81.63 114.82,-78.13 104.82,-74.63 104.82,-81.63"/>
<text xml:space="preserve" text-anchor="middle" x="78.51" y="-81.33" font-family="Times New Roman,serif" font-size="14.00">r1r2*r4</text>
</g>
<!-- q5 -->
<g id="node4" class="node">
<title>q5</title>
<ellipse fill="none" stroke="black" cx="136.89" cy="-20.13" rx="20.13" ry="20.13"/>
<text xml:space="preserve" text-anchor="middle" x="136.89" y="-15.08" font-family="Times New Roman,serif" font-size="14.00">q5</text>
</g>
<!-- q1&#45;&gt;q5 -->
<g id="edge3" class="edge">
<title>q1&#45;&gt;q5</title>
<path fill="none" stroke="black" d="M38.03,-68.55C44.34,-65.04 51.59,-61.08 58.26,-57.63 74.63,-49.17 93.21,-40.17 108.09,-33.11"/>
<polygon fill="black" stroke="black" points="109.26,-36.43 116.81,-29 106.28,-30.1 109.26,-36.43"/>
<text xml:space="preserve" text-anchor="middle" x="78.51" y="-60.83" font-family="Times New Roman,serif" font-size="14.00">r1r2*r5</text>
</g>
</g>
</svg>